<ttFont>
          <CharString index="0">
            -104 callsubr
            -79 callgsubr
            return
          </CharString>
          <CharString index="1">
            7 -31 callsubr
            512 -103 callsubr
            return
          </CharString>
          <CharString index="2">
            5 -104 callgsubr
            -5 6 return
          </CharString>
          <CharString index="3">
            -107 callgsubr
            314 475 callgsubr
            -54 -31 -29 callgsubr
            54 vhcurveto
            29 hlineto
            14 6 7 12 280 callgsubr
            -41 hlineto
            -102 68 callsubr
            return
          </CharString>
          <CharString index="4">
            vlineto
            7 3 5 8 -100 callgsubr
            return
          </CharString>
          <CharString index="5">
            -101 callsubr
            -6 return
          </CharString>
          <CharString index="6">
            -98 callsubr
            6 return
          </CharString>
          <CharString index="7">
            vhcurveto
            -22 hlineto
            -54 -28 25 57 hvcurveto
            85 vlineto
            57 21 25 46 42 23 -19 -54 vhcurveto
            -72 -32 callgsubr
            49 45 callsubr
            66 vlineto
            59 return
          </CharString>
          <CharString index="8">
            -98 callgsubr
            -135 218 rlineto
            return
          </CharString>
          <CharString index="9">
            187 callsubr
            -13 return
          </CharString>
          <CharString index="10">
            14 -105 callsubr
            -14 vhcurveto
            return
          </CharString>
          <CharString index="11">
            -25 -35 -12 18 callgsubr
            return
          </CharString>
          <CharString index="12">
            278 228 callsubr
            -19 173 callsubr
            return
          </CharString>
          <CharString index="13">
            rmoveto
            -89 callgsubr
            20 hlineto
            72 2 45 47 82 vvcurveto
            324 callsubr
            4 5 7 vhcurveto
            return
          </CharString>
          <CharString index="14">
            -14 6 -5 13 vhcurveto
            52 hlineto
            13 -106 callsubr
            return
          </CharString>
          <CharString index="15">
            34 hlineto
            14 6 6 13 hvcurveto
            44 312 callgsubr
            -14 -100 callsubr
            return
          </CharString>
          <CharString index="16">
            213 callsubr
            294 248 callsubr
            27 hlineto
            55 30 109 callsubr
            -27 -29 -55 vhcurveto
            -29 hlineto
            -13 -7 -6 -12 hvcurveto
            -44 vlineto
            -12 7 275 callsubr
            101 57 60 99 1 94 callsubr
            313 hlineto
            14 -89 callsubr
            -14 vhcurveto
            return
          </CharString>
          <CharString index="17">
            33 hlineto
            44 36 504 callsubr
            12 7 6 14 hvcurveto
            511 vlineto
            -63 callgsubr
            endchar
          </CharString>
          <CharString index="18">
            6 -104 callgsubr
            -6 6 return
          </CharString>
          <CharString index="19">
            21 hlineto
            48 30 17 25 15 hvcurveto
            4 -187 hlineto
            -14 6 -5 13 vhcurveto
            52 hlineto
            13 6 240 callsubr
            -29 hlineto
            -14 -6 -6 495 callsubr
            -7 14 vhcurveto
            41 hlineto
            102 216 callsubr
            -60 58 -100 vhcurveto
            415 callgsubr
            104 237 callgsubr
            314 484 callgsubr
          </CharString>
          <CharString index="20" raw="1">
            4c0a9891 6c0af894 07920b 
          </CharString>
          <CharString index="21">
            hlineto
            -77 callgsubr
            return
          </CharString>
          <CharString index="22">
            -48 -25 -38 -60 vhcurveto
            -33 -34 callgsubr
            -62 callgsubr
            6 -13 vhcurveto
            -54 hlineto
            return
          </CharString>
          <CharString index="23">
            -5 -86 callgsubr
            return
          </CharString>
          <CharString index="24">
            -97 51 -62 106 vhcurveto
            -77 callsubr
            return
          </CharString>
          <CharString index="25">
            -107 callgsubr
            59 -54 callsubr
            return
          </CharString>
          <CharString index="26">
            -9 callsubr
            59 hlineto
            11 7 7 230 callsubr
            -2 4 hvcurveto
            return
          </CharString>
          <CharString index="27">
            -70 -44 -43 -65 -25 3 -25 7 -19 hvcurveto
            -16 -51 callgsubr
            11 36 vhcurveto
            return
          </CharString>
          <CharString index="28">
            -71 callgsubr
            58 -34 callsubr
            return
          </CharString>
          <CharString index="29">
            hlineto
            -76 callsubr
            return
          </CharString>
          <CharString index="30">
            53 hlineto
            35 25 11 21 11 hvcurveto
            -91 callgsubr
            return
          </CharString>
          <CharString index="31">
            38 callsubr
            -4 -7 vvcurveto
            return
          </CharString>
          <CharString index="32">
            31 callgsubr
            109 vlineto
            227 callgsubr
            endchar
          </CharString>
          <CharString index="33">
            -26 callgsubr
            512 -85 callgsubr
            return
          </CharString>
          <CharString index="34">
            29 -40 -68 callsubr
            return
          </CharString>
          <CharString index="35">
            6 13 hvcurveto
            43 vlineto
            return
          </CharString>
          <CharString index="36">
            hlineto
            -81 callgsubr
            return
          </CharString>
          <CharString index="37">
            -14 -106 callgsubr
            14 vhcurveto
            return
          </CharString>
          <CharString index="38">
            -10 -5 -7 -8 -3 1 -3 2 -3 hvcurveto
            88 -143 rlineto
            -7 5 7 -7 10 hhcurveto
            58 33 callsubr
            return
          </CharString>
          <CharString index="39">
            121 -201 -81 callsubr
            return
          </CharString>
          <CharString index="40">
            349 callgsubr
            -277 -1 callgsubr
            -113 hlineto
            -10 19 -16 13 -20 7 rrcurveto
            4 vlineto
            36 17 24 35 57 vvcurveto
            16 vlineto
            103 -51 56 -106 vhcurveto
            -88 67 callgsubr
            77 hlineto
            55 24 -24 -52 hvcurveto
            -14 vlineto
            -51 -25 -24 -54 vhcurveto
            -52 hlineto
            -12 -7 -7 -13 hvcurveto
            -42 394 callsubr
            52 hlineto
            55 24 -23 -51 hvcurveto
            -28 vlineto
            -51 -25 -25 -54 vhcurveto
            -108 hlineto
            -14 -6 -6 -13 hvcurveto
            -43 vlineto
            -14 6 -5 14 602 callgsubr
            103 59 57 102 hvcurveto
            21 99 vlineto
            125 callsubr
            -186 vlineto
            -14 6 351 callgsubr
            12 7 -31 callsubr
            512 -85 callgsubr
            return
          </CharString>
          <CharString index="41">
            hlineto
            -62 callsubr
            return
          </CharString>
          <CharString index="42">
            562 callsubr
            7 374 callgsubr
            -7 5 -13 vhcurveto
            -140 -60 callsubr
            return
          </CharString>
          <CharString index="43">
            -5 -7 hvcurveto
            return
          </CharString>
          <CharString index="44">
            -44 callgsubr
            12 vhcurveto
            53 hlineto
            return
          </CharString>
          <CharString index="45">
            14 -89 callsubr
            -14 vhcurveto
            return
          </CharString>
          <CharString index="46">
            15 6 23 37 vvcurveto
            120 -85 callgsubr
            return
          </CharString>
          <CharString index="47">
            hlineto
            -74 -26 22 56 hvcurveto
            15 -68 callgsubr
            return
          </CharString>
          <CharString index="48">
            585 callgsubr
            45 11 vlineto
            90 48 356 callgsubr
            return
          </CharString>
          <CharString index="49">
            13 -5 -46 callsubr
            return
          </CharString>
          <CharString index="50">
            -52 callgsubr
            123 -93 callgsubr
            return
          </CharString>
          <CharString index="51">
            -47 callsubr
            -63 hlineto
            -12 -5 -4 -13 hvcurveto
            -323 vlineto
            273 callgsubr
            -49 -23 25 49 hvcurveto
            334 vlineto
            -58 callsubr
            -338 vlineto
            -98 52 -57 97 vhcurveto
            return
          </CharString>
          <CharString index="52">
            vlineto
            226 callgsubr
            32 hlineto
            13 238 callsubr
            40 -6 callsubr
            return
          </CharString>
          <CharString index="53">
            -78 callsubr
            -362 -36 callgsubr
            return
          </CharString>
          <CharString index="54">
            352 530 callgsubr
            -48 hlineto
            87 callgsubr
            119 467 callgsubr
            -7 hvcurveto
            -105 -415 5 callgsubr
            -224 -39 callgsubr
            return
          </CharString>
          <CharString index="55">
            -14 7 -5 12 vhcurveto
            53 -49 callgsubr
            return
          </CharString>
          <CharString index="56">
            -6 -15 callsubr
            6 -6 return
          </CharString>
          <CharString index="57">
            -13 callsubr
            -22 -17 -30 vhcurveto
            return
          </CharString>
          <CharString index="58">
            54 409 643 rmoveto
            -14 callsubr
            -467 vlineto
            -49 -23 -25 -50 vhcurveto
            -82 hlineto
            -49 -23 25 49 hvcurveto
            467 vlineto
            -58 callsubr
            -471 vlineto
            -98 57 -57 98 vhcurveto
            111 hlineto
            97 59 57 98 hvcurveto
            472 vlineto
            12 -6 4 -12 vhcurveto
            return
          </CharString>
          <CharString index="59">
            1 601 callsubr
            -51 -21 23 50 hvcurveto
            194 395 callgsubr
            61 hlineto
            50 22 -23 -50 hvcurveto
            -194 vlineto
            -50 -22 -23 -50 vhcurveto
            13 -85 rmoveto
            97 59 57 98 hvcurveto
            200 vlineto
            99 513 callgsubr
            -88 -39 callgsubr
            return
          </CharString>
          <CharString index="60">
            147 callgsubr
            -36 hlineto
            176 callgsubr
            476 vlineto
            13 -6 4 -12 vhcurveto
            return
          </CharString>
          <CharString index="61">
            4 -12 vhcurveto
            -63 hlineto
            -14 callsubr
            return
          </CharString>
          <CharString index="62">
            31 39 callsubr
            -107 -2 callsubr
            51 hlineto
            13 return
          </CharString>
          <CharString index="63">
            89 callsubr
            512 371 callsubr
            return
          </CharString>
          <CharString index="64">
            -53 callgsubr
            endchar
          </CharString>
          <CharString index="65">
            -14 7 -5 13 vhcurveto
            52 -49 callgsubr
            endchar
          </CharString>
          <CharString index="66">
            vlineto
            36 20 19 33 592 callsubr
            13 -6 6 -14 vhcurveto
            -62 hlineto
            -35 425 callgsubr
            return
          </CharString>
          <CharString index="67">
            -76 -26 39 61 hvcurveto
            32 52 vlineto
            103 55 328 callsubr
            6 -5 297 callsubr
            5 15 hvcurveto
            42 vlineto
            29 18 461 callsubr
            -19 -25 -58 vhcurveto
            -118 393 callgsubr
            return
          </CharString>
          <CharString index="68">
            -98 -61 -54 -104 hvcurveto
            -114 -21 callgsubr
            112 368 callsubr
            return
          </CharString>
          <CharString index="69">
            222 callgsubr
            32 589 callsubr
            -90 vlineto
            -55 -24 -23 -55 vhcurveto
            -116 hlineto
            -52 -22 17 51 hvcurveto
            26 vlineto
            40 18 22 43 vhcurveto
            28 hlineto
            14 6 6 11 280 callgsubr
            -35 hlineto
            -35 -19 19 35 hvcurveto
            68 vlineto
            41 18 23 42 vhcurveto
            177 hlineto
            9 -1 3 198 callsubr
            -5 -5 0 -6 hhcurveto
            return
          </CharString>
          <CharString index="70">
            vlineto
            53 24 27 51 2 callgsubr
            4 5 7 vhcurveto
            return
          </CharString>
          <CharString index="71">
            -75 vlineto
            -94 48 -61 98 -4 vhcurveto
            -74 -78 rlineto
            -3 -3 -2 -4 577 callsubr
            63 hlineto
            11 7 4 6 6 hvcurveto
            10 10 53 59 43 49 6 6 rcurveline
            -91 callgsubr
            endchar
          </CharString>
          <CharString index="72">
            142 callsubr
            104 -7 callsubr
            return
          </CharString>
          <CharString index="73">
            hlineto
            6 -1 3 -5 -6 vvcurveto
            return
          </CharString>
          <CharString index="74">
            rmoveto
            -8 -3 -4 -8 vhcurveto
            -159 hlineto
            -7 -4 4 8 hvcurveto
            186 270 callsubr
            return
          </CharString>
          <CharString index="75">
            92 190 callgsubr
            return
          </CharString>
          <CharString index="76">
            5 14 hvcurveto
            return
          </CharString>
          <CharString index="77">
            rmoveto
            378 callgsubr
            vhcurveto
            -176 4 hlineto
            18 -61 callsubr
            141 -86 callsubr
            return
          </CharString>
          <CharString index="78">
            -78 callsubr
            -141 vlineto
            201 callsubr
            return
          </CharString>
          <CharString index="79">
            rmoveto
            -98 60 -58 97 vhcurveto
            112 hlineto
            97 59 58 98 hvcurveto
            39 vlineto
            238 -327 -114 122 vvcurveto
            31 vlineto
            62 22 24 58 vhcurveto
            63 hlineto
            57 23 -23 -57 hvcurveto
            -13 vlineto
            59 callsubr
            22 vlineto
            98 -59 58 -98 vhcurveto
            -106 hlineto
            -97 -59 -58 -98 hvcurveto
            -42 vlineto
            -239 328 125 -140 vvcurveto
            -23 vlineto
            -59 -24 -24 -57 vhcurveto
            -69 hlineto
            -57 -23 23 56 hvcurveto
            18 87 callsubr
            endchar
          </CharString>
          <CharString index="80">
            hvcurveto
            -53 84 callsubr
            55 hlineto
            12 return
          </CharString>
          <CharString index="81">
            32 280 callsubr
            -101 435 callsubr
            7 vhcurveto
            66 -22 callsubr
          </CharString>
          <CharString index="82">
            4 callgsubr
            206 -85 callgsubr
            return
          </CharString>
          <CharString index="83">
            78 425 rmoveto
            7 3 -3 -7 hvcurveto
            -262 vlineto
            -98 61 -55 97 vhcurveto
            54 373 callgsubr
            52 vlineto
            12 -4 5 -14 vhcurveto
            -39 hlineto
            -50 -25 24 49 hvcurveto
            257 226 callsubr
            93 373 callgsubr
            52 456 callsubr
            -14 vhcurveto
            -93 452 callgsubr
            90 367 callsubr
            -63 hlineto
            -11 -7 -4 -13 hvcurveto
            -90 vlineto
            -7 -3 -3 -7 vhcurveto
            -48 184 callsubr
            -52 vlineto
            -12 3 -4 14 vhcurveto
            return
          </CharString>
          <CharString index="84">
            120 callgsubr
            6 -6 12 vhcurveto
            53 hlineto
            13 7 58 callsubr
          </CharString>
          <CharString index="85">
            -75 callgsubr
            endchar
          </CharString>
          <CharString index="86">
            hlineto
            -17 callsubr
            return
          </CharString>
          <CharString index="87">
            hlineto
            7 -1 2 -4 -7 vvcurveto
            return
          </CharString>
          <CharString index="88">
            -12 callgsubr
            -25 vlineto
            -81 43 -33 89 vhcurveto
            84 hlineto
            34 17 -11 -38 hvcurveto
            -29 vlineto
            -37 -18 -13 -33 vhcurveto
            -65 hlineto
            -47 -23 287 callgsubr
            60 -32 87 vhcurveto
            87 hlineto
            79 50 44 78 hvcurveto
            46 vlineto
            76 -49 37 -80 vhcurveto
            -90 hlineto
            -34 -16 9 38 hvcurveto
            9 62 callgsubr
          </CharString>
          <CharString index="89">
            -25 -21 callsubr
            return
          </CharString>
          <CharString index="90">
            -45 -35 callsubr
            return
          </CharString>
          <CharString index="91">
            vhcurveto
            53 hlineto
            12 -27 callgsubr
            return
          </CharString>
          <CharString index="92">
            14 callsubr
            -14 return
          </CharString>
          <CharString index="93">
            -12 23 callsubr
            return
          </CharString>
          <CharString index="94">
            -86 callsubr
            -143 vlineto
            -39 return
          </CharString>
          <CharString index="95">
            14 6 6 12 hvcurveto
            41 45 callgsubr
            -62 hlineto
            return
          </CharString>
          <CharString index="96">
            -31 callsubr
            72 vlineto
            8 3 4 8 vhcurveto
            return
          </CharString>
          <CharString index="97">
            85 88 callgsubr
            -67 hlineto
            -48 -21 7 49 355 callgsubr
            return
          </CharString>
          <CharString index="98">
            15 callgsubr
            10 hhcurveto
            return
          </CharString>
          <CharString index="99">
            215 callgsubr
            14 6 43 callgsubr
            return
          </CharString>
          <CharString index="100">
            hlineto
            -61 callgsubr
            return
          </CharString>
          <CharString index="101">
            1 callgsubr
            -13 vhcurveto
            return
          </CharString>
          <CharString index="102">
            16 callgsubr
            -7 -8 -15 hvcurveto
            -6 vlineto
            return
          </CharString>
          <CharString index="103">
            rmoveto
            -53 -21 -29 -51 vhcurveto
            -7 hlineto
            -51 -21 29 53 hvcurveto
            80 vlineto
            53 21 29 51 vhcurveto
            7 hlineto
            51 21 -29 -53 hvcurveto
            -239 489 callsubr
            -6 hlineto
            -52 -20 29 53 hvcurveto
            80 vlineto
            53 20 29 52 vhcurveto
            6 hlineto
            52 21 -29 -53 hvcurveto
            -293 342 329 callgsubr
            4 -5 -7 hvcurveto
            -80 vlineto
            -7 -3 -3 -7 -2 vhcurveto
            -32 -7 -24 -14 -18 -21 rrcurveto
            30 -24 -39 16 -54 hhcurveto
            -8 hlineto
            -102 -56 -57 -105 hvcurveto
            -80 vlineto
            -105 56 -57 102 vhcurveto
            8 hlineto
            53 39 15 30 24 hvcurveto
            return
          </CharString>
          <CharString index="104">
            41 -9 callgsubr
            return
          </CharString>
          <CharString index="105">
            hlineto
            139 callsubr
            return
          </CharString>
          <CharString index="106">
            325 rmoveto
            -45 -25 -33 -58 vhcurveto
            -20 508 callsubr
            157 -86 callsubr
            return
          </CharString>
          <CharString index="107">
            vlineto
            156 callsubr
            return
          </CharString>
          <CharString index="108">
            134 -209 7 callsubr
            return
          </CharString>
          <CharString index="109">
            -14 6 -5 13 vhcurveto
            52 hlineto
            13 7 return
          </CharString>
          <CharString index="110">
            441 callsubr
            27 -28 callgsubr
            return
          </CharString>
          <CharString index="111">
            -175 167 rlineto
            7 12 512 callsubr
            347 callsubr
            return
          </CharString>
          <CharString index="112">
            125 callgsubr
            -57 vlineto
            529 callgsubr
            return
          </CharString>
          <CharString index="113">
            -71 32 17 rmoveto
            -11 4 -6 14 vhcurveto
            333 452 callsubr
            50 vlineto
            11 -5 7 -13 vhcurveto
            -223 4 hlineto
            219 320 rlineto
            7 8 5 7 23 vvcurveto
            46 260 callsubr
            -316 502 callsubr
            -11 hvcurveto
            -50 vlineto
            -11 5 -7 13 vhcurveto
            219 -4 hlineto
            -231 -335 rlineto
            -8 -10 -6 -9 -24 vvcurveto
            return
          </CharString>
          <CharString index="114">
            rlineto
            -5 4 6 -7 10 hhcurveto
            57 205 callsubr
            4 -2 6 -3 4 hvcurveto
            return
          </CharString>
          <CharString index="115">
            hlineto
            33 callgsubr
            return
          </CharString>
          <CharString index="116">
            -57 -60 -99 -1 hvcurveto
            return
          </CharString>
          <CharString index="117">
            -1 5 0 10 3 vvcurveto
            80 -10 -52 43 -91 hhcurveto
            -67 393 callgsubr
            -45 vlineto
            -11 6 -6 14 vhcurveto
            64 hlineto
            48 30 -22 -59 hvcurveto
            -64 vlineto
            -58 -31 -22 -49 vhcurveto
            -79 hlineto
            -14 -5 -7 -11 hvcurveto
            -44 vlineto
            -14 169 callsubr
            84 hlineto
            89 53 42 79 11 hvcurveto
            4 1 15 1 5 vhcurveto
            7 1 3 3 8 hhcurveto
            return
          </CharString>
          <CharString index="118">
            rmoveto
            -19 15 rlineto
            11 6 5 13 17 vvcurveto
            20 vlineto
            35 -27 rlineto
            -12 -228 rmoveto
            -54 -27 -29 -54 vhcurveto
            -84 hlineto
            -55 -26 29 54 hvcurveto
            36 vlineto
            54 20 27 55 vhcurveto
            96 hlineto
            54 21 -27 -54 hvcurveto
            -235 380 rmoveto
            22 -17 rlineto
            0 vlineto
            378 callgsubr
            hvcurveto
            -47 vlineto
            -45 35 rlineto
            -119 104 317 callsubr
            64 hlineto
            7 -1 2 489 callgsubr
            16 -29 28 -16 vhcurveto
            -4 vlineto
            -47 -25 -18 -43 -62 vvcurveto
            -42 vlineto
            return
          </CharString>
          <CharString index="119">
            rmoveto
            -6 callgsubr
            return
          </CharString>
          <CharString index="120">
            40 325 hmoveto
            98 57 57 98 hvcurveto
            168 vlineto
            14 -8 7 -13 vhcurveto
            -168 hlineto
            -13 -4 -5 -12 hvcurveto
            -51 183 callsubr
            81 454 callgsubr
            -90 298 callgsubr
            -79 hlineto
            -49 -23 573 callgsubr
            23 25 49 vhcurveto
            79 299 callsubr
            -32 vlineto
            -13 5 -5 551 callsubr
            5 13 hvcurveto
            36 vlineto
            99 -57 56 -98 vhcurveto
            -107 hlineto
            -98 -57 577 callgsubr
            57 -57 98 vhcurveto
            return
          </CharString>
          <CharString index="121">
            -6 -12 hvcurveto
            -42 vlineto
            return
          </CharString>
          <CharString index="122">
            164 callgsubr
            44 return
          </CharString>
          <CharString index="123">
            vlineto
            25 -33 29 callsubr
            return
          </CharString>
          <CharString index="124">
            298 callsubr
            -285 vlineto
            -85 callsubr
            -102 533 callsubr
            -70 vlineto
            242 callsubr
            -90 callsubr
          </CharString>
          <CharString index="125">
            40 callgsubr
            392 callsubr
            return
          </CharString>
          <CharString index="126">
            -13 30 callgsubr
            13 vhcurveto
            return
          </CharString>
          <CharString index="127">
            49 callsubr
            -211 hlineto
            57 callsubr
            -33 vlineto
            -93 53 -52 93 vhcurveto
            return
          </CharString>
          <CharString index="128">
            hlineto
            54 callsubr
            return
          </CharString>
          <CharString index="129">
            12 34 callgsubr
            return
          </CharString>
          <CharString index="130">
            -5 -4 -13 hvcurveto
            return
          </CharString>
          <CharString index="131">
            114 callgsubr
            8 10 5 -1 4 -2 return
          </CharString>
          <CharString index="132">
            20 33 18 162 callgsubr
            return
          </CharString>
          <CharString index="133">
            418 -38 callsubr
            return
          </CharString>
          <CharString index="134">
            7 -1 2 -4 -7 vvcurveto
            -128 vlineto
            -7 -3 340 callsubr
            -70 -44 -43 -65 442 callgsubr
            hvcurveto
            -5 callgsubr
            return
          </CharString>
          <CharString index="135">
            -14 7 -5 12 vhcurveto
            53 hlineto
            13 6 -31 callsubr
            295 167 callgsubr
            102 57 60 99 94 callsubr
            314 -71 callsubr
            return
          </CharString>
          <CharString index="136">
            1 callsubr
            -144 222 rlineto
            return
          </CharString>
          <CharString index="137">
            12 callsubr
            356 -20 callsubr
            -50 162 callsubr
            -156 hlineto
            -85 -51 -30 -89 -52 21 -31 34 -14 hvcurveto
            -4 vlineto
            -33 -14 -28 -28 -72 vvcurveto
            -84 vlineto
            -99 56 -54 126 vhcurveto
            166 hlineto
            14 6 6 13 hvcurveto
            39 45 callgsubr
            -157 hlineto
            -74 -26 21 56 hvcurveto
            81 vlineto
            50 19 30 50 vhcurveto
            107 hlineto
            -106 -131 rlineto
            -4 -5 -5 -6 -7 vvcurveto
            -7 5 -5 10 vhcurveto
            65 hlineto
            13 10 4 10 7 hvcurveto
            101 142 rlineto
            -153 vlineto
            -14 7 -5 12 vhcurveto
            42 hlineto
            12 7 -31 callsubr
            186 vlineto
            31 -22 14 -27 vhcurveto
            -239 hlineto
            -40 -17 13 41 39 18 16 41 hvcurveto
            197 185 callgsubr
            92 371 callsubr
            86 193 callsubr
          </CharString>
          <CharString index="138">
            31 hlineto
            14 238 callsubr
            40 45 callgsubr
            return
          </CharString>
          <CharString index="139">
            201 callgsubr
            224 -85 callgsubr
            return
          </CharString>
          <CharString index="140">
            hlineto
            10 7 76 callsubr
            return
          </CharString>
          <CharString index="141">
            -36 123 -162 rmoveto
            111 46 73 100 28 hvcurveto
            137 481 rlineto
            12 2 -6 6 -12 hhcurveto
            -64 hlineto
            -10 -8 -5 -12 -2 hvcurveto
            -109 -392 rlineto
            -4 hlineto
            -109 392 rlineto
            13 -3 -7 4 -10 hhcurveto
            -67 hlineto
            -12 -4 -5 -12 3 hvcurveto
            133 -449 rlineto
            -11 4 5 -6 12 hhcurveto
            40 hlineto
            -64 -18 -18 -39 -88 hhcurveto
            -23 hlineto
            -13 -4 -7 -11 hvcurveto
            -51 183 callsubr
            return
          </CharString>
          <CharString index="142">
            rmoveto
            7 4 446 callgsubr
            -682 hlineto
            119 callsubr
            258 475 callgsubr
            -55 -30 -29 callgsubr
            54 vhcurveto
            29 hlineto
            14 6 7 12 280 callgsubr
            -42 hlineto
            -101 595 callsubr
            99 vhcurveto
            25 hlineto
            45 -45 callsubr
            6 6 14 hvcurveto
            294 vlineto
            47 27 27 49 vhcurveto
            28 hlineto
            55 30 82 callgsubr
            -29 hlineto
            -13 -7 -6 -12 hvcurveto
            -44 vlineto
            -12 7 275 callsubr
            101 57 60 99 1 32 callgsubr
            -14 hvcurveto
            -4 hlineto
            return
          </CharString>
          <CharString index="143">
            159 -10 callgsubr
            return
          </CharString>
          <CharString index="144">
            -13 60 callgsubr
            return
          </CharString>
          <CharString index="145">
            7 -1 3 return
          </CharString>
          <CharString index="146">
            16 26 15 hvcurveto
            4 return
          </CharString>
          <CharString index="147">
            4 callgsubr
            155 vlineto
            183 -201 rlineto
            -17 -18 -22 -15 -33 hhcurveto
            return
          </CharString>
          <CharString index="148">
            463 callsubr
            48 373 callsubr
            -63 hlineto
            -11 -6 -6 -12 hvcurveto
            -44 298 callgsubr
            -87 hlineto
            -49 -23 573 callgsubr
            23 25 49 vhcurveto
            87 hlineto
            50 22 -25 -49 561 callsubr
            11 vhcurveto
            63 hlineto
            12 6 6 12 hvcurveto
            48 603 callsubr
            -97 vhcurveto
            -116 hlineto
            -98 -57 577 callgsubr
            57 -57 98 vhcurveto
            endchar
          </CharString>
          <CharString index="149">
            -12 -5 -5 -13 hvcurveto
            -53 vlineto
            -13 5 -6 12 vhcurveto
            55 hlineto
            12 6 6 13 hvcurveto
            53 vlineto
            405 callsubr
            return
          </CharString>
          <CharString index="150">
            hlineto
            46 callsubr
            return
          </CharString>
          <CharString index="151">
            304 callgsubr
            -186 195 callsubr
            127 199 callsubr
            return
          </CharString>
          <CharString index="152">
            hlineto
            132 callsubr
            return
          </CharString>
          <CharString index="153">
            107 callgsubr
            96 callgsubr
            return
          </CharString>
          <CharString index="154">
            523 callsubr
            347 callsubr
            -101 194 callgsubr
            -100 61 -60 99 vhcurveto
            return
          </CharString>
          <CharString index="155">
            86 callgsubr
            181 -172 rlineto
            -11 -14 -19 -6 -25 hhcurveto
            return
          </CharString>
          <CharString index="156">
            3 callsubr
            16 -103 callgsubr
            return
          </CharString>
          <CharString index="157">
            -12 callgsubr
            -23 vlineto
            -82 43 -32 89 vhcurveto
            -5 callsubr
            return
          </CharString>
          <CharString index="158">
            rmoveto
            97 callgsubr
            63 369 callgsubr
            return
          </CharString>
          <CharString index="159">
            -52 callgsubr
            56 -25 callgsubr
            -110 hmoveto
            -77 callgsubr
            -224 vlineto
            -50 -26 -19 -40 vhcurveto
            -10 32 callsubr
            endchar
          </CharString>
          <CharString index="160">
            281 rmoveto
            -68 -34 -45 -82 vhcurveto
            -44 hlineto
            -77 585 callgsubr
            58 11 vlineto
            90 48 39 87 hvcurveto
            8 vlineto
            38 -16 24 337 callsubr
            -417 -120 217 callgsubr
            162 487 callgsubr
            49 20 -18 -45 hvcurveto
            -4 vlineto
            -49 378 callsubr
            return
          </CharString>
          <CharString index="161">
            49 20 -22 -46 hvcurveto
            -14 vlineto
            89 callgsubr
            return
          </CharString>
          <CharString index="162">
            475 callgsubr
            -54 -31 -29 callgsubr
            54 vhcurveto
            29 hlineto
            14 6 7 12 280 callgsubr
            -41 hlineto
            -48 -37 -13 -24 -27 hvcurveto
            return
          </CharString>
          <CharString index="163">
            -40 callsubr
            -94 vlineto
            319 callsubr
            return
          </CharString>
          <CharString index="164">
            -13 -6 -6 -12 hvcurveto
            -42 vlineto
            -14 6 -6 13 vhcurveto
            86 21 callgsubr
            return
          </CharString>
          <CharString index="165">
            43 callgsubr
            -112 vhcurveto
            endchar
          </CharString>
          <CharString index="166">
            187 callgsubr
            64 hlineto
            11 6 4 13 hvcurveto
            return
          </CharString>
          <CharString index="167">
            43 19 -17 -18 12 hvcurveto
            -7 5 4 -6 7 335 callgsubr
            -45 142 callsubr
            104 hlineto
            7 3 5 8 vhcurveto
            221 -75 callgsubr
            return
          </CharString>
          <CharString index="168">
            499 callsubr
            -29 21 vhcurveto
            15 246 callsubr
            9 vhcurveto
            61 165 callsubr
          </CharString>
          <CharString index="169">
            rmoveto
            40 20 -14 -18 12 hvcurveto
            -8 7 3 -8 8 335 callgsubr
            -44 -32 -17 -25 -14 hvcurveto
            -4 111 hlineto
            7 4 5 7 vhcurveto
            226 -75 callgsubr
            -664 153 callsubr
            -216 vlineto
            -46 callgsubr
            287 248 callsubr
            return
          </CharString>
          <CharString index="170">
            73 callsubr
            7 vhcurveto
            return
          </CharString>
          <CharString index="171">
            310 callsubr
            -15 142 callgsubr
            return
          </CharString>
          <CharString index="172">
            rmoveto
            102 callgsubr
            -495 hlineto
            361 callgsubr
            endchar
          </CharString>
          <CharString index="173">
            127 callsubr
            61 538 callgsubr
            5 5 hvcurveto
            19 return
          </CharString>
          <CharString index="174">
            339 callgsubr
            -42 -32 callgsubr
            return
          </CharString>
          <CharString index="175">
            9 callsubr
            -66 vlineto
            return
          </CharString>
          <CharString index="176">
            -4 hlineto
            -21 -10 -11 -20 -32 vvcurveto
            -79 vlineto
            -41 20 -30 38 -9 vhcurveto
            -4 vlineto
            -41 -14 -17 -35 -48 vvcurveto
            return
          </CharString>
          <CharString index="177">
            47 vlineto
            77 -48 37 -80 vhcurveto
            -91 hlineto
            -34 -16 8 38 hvcurveto
            8 vlineto
            37 16 9 34 vhcurveto
            return
          </CharString>
          <CharString index="178">
            81 callsubr
            -53 -55 -102 hvcurveto
            return
          </CharString>
          <CharString index="179">
            rmoveto
            -8 -3 -3 -8 hvcurveto
            -35 vlineto
            -7 3 -3 8 vhcurveto
            22 hlineto
            30 15 -10 -29 hvcurveto
            -6 vlineto
            -31 -15 -11 -31 vhcurveto
            -9 hlineto
            -28 -19 7 34 hvcurveto
            9 vlineto
            8 -4 3 -6 vhcurveto
            -44 hlineto
            -6 -4 -3 -8 hvcurveto
            -17 vlineto
            -62 40 -27 56 vhcurveto
            36 hlineto
            61 36 32 59 hvcurveto
            20 vlineto
            36 -18 21 -27 4 vhcurveto
            30 10 15 23 30 vvcurveto
            20 vlineto
            57 -36 32 -62 vhcurveto
            -35 hlineto
            -64 -32 -31 -58 hvcurveto
            -19 vlineto
            -7 4 -3 6 vhcurveto
            44 hlineto
            6 4 3 7 hvcurveto
            11 vlineto
            30 10 12 36 vhcurveto
            9 hlineto
            36 11 -14 -28 hvcurveto
            -9 vlineto
            -28 -12 -11 -33 vhcurveto
            endchar
          </CharString>
          <CharString index="180">
            70 callsubr
            145 188 callsubr
            105 vlineto
            7 4 5 return
          </CharString>
          <CharString index="181">
            92 76 callgsubr
            return
          </CharString>
          <CharString index="182">
            -36 vlineto
            -13 444 callsubr
            51 45 callsubr
            31 vlineto
            54 27 23 54 vhcurveto
            33 hlineto
            return
          </CharString>
          <CharString index="183">
            8 10 4 205 callgsubr
            return
          </CharString>
          <CharString index="184">
            rmoveto
            136 callgsubr
            -514 hlineto
            -14 -5 -6 -13 hvcurveto
            -42 vlineto
            -13 5 -6 14 vhcurveto
            304 hlineto
            7 -1 3 -4 -7 vvcurveto
            -36 vlineto
            -42 -22 -14 -36 vhcurveto
            -42 hlineto
            -101 -59 -59 -100 hvcurveto
            276 callsubr
            -131 -185 rmoveto
            423 callsubr
            -80 vlineto
            108 callgsubr
            endchar
          </CharString>
          <CharString index="185">
            90 callgsubr
            -3 12 -4 217 callsubr
            return
          </CharString>
          <CharString index="186">
            rmoveto
            45 40 19 35 16 hvcurveto
            4 -76 hlineto
            -50 -22 -24 -51 vhcurveto
            -173 184 callsubr
            -52 vlineto
            -12 4 -4 13 vhcurveto
            188 hlineto
            97 59 56 98 hvcurveto
            495 vlineto
            13 -6 4 -12 vhcurveto
            -224 hlineto
            -97 588 callgsubr
            -175 vlineto
            -98 52 -57 97 vhcurveto
            return
          </CharString>
          <CharString index="187">
            rmoveto
            135 callgsubr
            -482 67 callgsubr
            293 214 callsubr
            endchar
          </CharString>
          <CharString index="188">
            5 callsubr
            -101 return
          </CharString>
          <CharString index="189">
            21 -20 -60 hvcurveto
            -18 vlineto
            -14 return
          </CharString>
          <CharString index="190">
            rmoveto
            -71 callgsubr
            98 69 callsubr
            -36 vlineto
            return
          </CharString>
          <CharString index="191">
            vlineto
            -13 206 callgsubr
            return
          </CharString>
          <CharString index="192">
            411 rmoveto
            -4 hlineto
            20 -11 -24 11 -37 460 callsubr
            151 callgsubr
            return
          </CharString>
          <CharString index="193">
            hlineto
            -14 callsubr
            -609 0 callsubr
            return
          </CharString>
          <CharString index="194">
            367 callsubr
            -64 379 callgsubr
            -13 hvcurveto
            return
          </CharString>
          <CharString index="195">
            hlineto
            -75 -26 39 61 hvcurveto
            32 52 vlineto
            103 54 328 callsubr
            7 -5 11 vhcurveto
            49 hlineto
            11 7 5 15 hvcurveto
            42 vlineto
            29 17 461 callsubr
            -18 -25 -58 vhcurveto
            return
          </CharString>
          <CharString index="196">
            -14 6 -5 13 vhcurveto
            52 hlineto
            13 6 -31 callsubr
            return
          </CharString>
          <CharString index="197">
            -2 callsubr
            54 99 callgsubr
            -590 -52 callgsubr
            411 192 callsubr
            -27 27 53 hvcurveto
            33 40 callgsubr
            return
          </CharString>
          <CharString index="198">
            -98 -51 -56 -98 hvcurveto
            -29 vlineto
            -7 -3 -3 -8 vhcurveto
            -53 hlineto
            -14 -3 -4 -12 hvcurveto
            -52 562 callgsubr
            53 454 callgsubr
            -398 237 callsubr
            63 hlineto
            11 7 4 13 hvcurveto
            398 426 callgsubr
            7 vhcurveto
            return
          </CharString>
          <CharString index="199">
            -7 -4 4 8 hvcurveto
            113 220 callgsubr
            -286 50 callgsubr
            return
          </CharString>
          <CharString index="200">
            -3 callgsubr
            -75 vlineto
            return
          </CharString>
          <CharString index="201">
            hvcurveto
            66 vlineto
            101 -59 58 -100 vhcurveto
            -18 callsubr
            return
          </CharString>
          <CharString index="202">
            hlineto
            143 callgsubr
            return
          </CharString>
          <CharString index="203">
            199 callsubr
            -12 67 callsubr
            return
          </CharString>
          <CharString index="204">
            634 136 254 rmoveto
            20 hlineto
            72 2 45 47 82 vvcurveto
            324 callsubr
            4 5 7 vhcurveto
            207 -96 callgsubr
            -496 hlineto
            -83 callgsubr
            return
          </CharString>
          <CharString index="205">
            -50 callsubr
            -22 hlineto
            45 -13 -34 27 -58 hhcurveto
            -117 hlineto
            -70 -44 -45 167 callsubr
            76 hlineto
            31 13 -12 -26 hvcurveto
            -30 -74 callgsubr
            -135 218 rlineto
            return
          </CharString>
          <CharString index="206">
            -5 380 callgsubr
            -41 -22 -19 return
          </CharString>
          <CharString index="207">
            19 callgsubr
            -102 194 callgsubr
            -100 61 -59 99 vhcurveto
            -24 callgsubr
          </CharString>
          <CharString index="208">
            vlineto
            163 callsubr
            return
          </CharString>
          <CharString index="209">
            vvcurveto
            75 callsubr
            56 28 -26 -53 hvcurveto
            -28 vlineto
            -85 -62 -185 259 callgsubr
            512 vlineto
            7 4 5 8 vhcurveto
            65 289 callgsubr
          </CharString>
          <CharString index="210">
            rmoveto
            -81 -51 -38 -79 hvcurveto
            -15 vlineto
            -81 42 -40 90 vhcurveto
            63 hlineto
            38 14 -14 -34 hvcurveto
            -22 vlineto
            -36 -15 -14 -37 vhcurveto
            -49 hlineto
            -38 -22 15 41 hvcurveto
            12 vlineto
            14 -7 4 -12 vhcurveto
            -51 hlineto
            -13 -7 -4 590 callsubr
            51 hlineto
            12 7 -31 callsubr
            84 339 callsubr
            34 hhcurveto
            46 hlineto
            81 47 45 78 hvcurveto
            38 vlineto
            78 -47 38 -81 vhcurveto
            -59 hlineto
            544 callgsubr
            return
          </CharString>
          <CharString index="211">
            -14 7 -5 12 vhcurveto
            53 hlineto
            13 6 -43 callsubr
          </CharString>
          <CharString index="212">
            298 callsubr
            -256 vlineto
            -47 -16 -33 -57 vhcurveto
            -6 hlineto
            -82 callgsubr
            return
          </CharString>
          <CharString index="213">
            146 callsubr
            -112 312 rmoveto
            return
          </CharString>
          <CharString index="214">
            130 callsubr
            6 -4 return
          </CharString>
          <CharString index="215">
            41 204 callsubr
            -55 -105 hvcurveto
            return
          </CharString>
          <CharString index="216">
            -28 -54 hvcurveto
            -57 vlineto
            -54 return
          </CharString>
          <CharString index="217">
            -20 -57 320 callsubr
            return
          </CharString>
          <CharString index="218">
            hlineto
            113 callgsubr
          </CharString>
          <CharString index="219">
            -22 -46 hvcurveto
            -14 vlineto
            return
          </CharString>
          <CharString index="220">
            -14 7 -5 12 vhcurveto
            51 hlineto
            13 -106 callsubr
            return
          </CharString>
          <CharString index="221">
            -5 -13 hvcurveto
            -43 vlineto
            -13 return
          </CharString>
          <CharString index="222">
            vlineto
            76 -48 37 -80 vhcurveto
            -111 hlineto
            -34 -16 8 35 35 16 8 34 hvcurveto
            158 188 callsubr
            92 -85 callgsubr
            83 289 callsubr
          </CharString>
          <CharString index="223">
            vlineto
            39 -15 25 -20 173 callsubr
            return
          </CharString>
          <CharString index="224">
            hlineto
            -70 -44 -44 193 callgsubr
            return
          </CharString>
          <CharString index="225">
            25 585 callsubr
            148 344 callgsubr
            return
          </CharString>
          <CharString index="226">
            -13 -7 -17 callgsubr
            444 callsubr
            return
          </CharString>
          <CharString index="227">
            -503 -71 896 rmoveto
            405 callsubr
            -41 hlineto
            -12 -5 -5 -13 552 callgsubr
            561 callgsubr
            6 13 hvcurveto
            18 -159 rmoveto
            79 39 43 83 hvcurveto
            7 vlineto
            18 -7 9 -15 vhcurveto
            -37 hlineto
            -12 -10 -7 -18 hvcurveto
            -9 vlineto
            -36 -14 -15 -38 vhcurveto
            -83 hlineto
            -39 -14 15 36 hvcurveto
            9 vlineto
            18 -7 245 callsubr
            endchar
          </CharString>
          <CharString index="228">
            45 153 236 callgsubr
            178 vlineto
            79 93 173 -271 rlineto
            -14 9 12 -3 17 hhcurveto
            56 hlineto
            14 6 7 13 466 callgsubr
            339 195 265 rlineto
            12 9 -4 7 -12 hhcurveto
            -74 hlineto
            -17 -6 -3 -14 -9 hvcurveto
            -191 -267 -7 -10 -12 -21 -7 -19 rlinecurve
            -3 317 hlineto
            97 callgsubr
            return
          </CharString>
          <CharString index="229">
            -14 -5 -7 -12 hvcurveto
            return
          </CharString>
          <CharString index="230">
            -57 callgsubr
            endchar
          </CharString>
          <CharString index="231">
            -6 174 callgsubr
            return
          </CharString>
          <CharString index="232">
            8 3 -4 -8 hvcurveto
            return
          </CharString>
          <CharString index="233" raw="1">
            27c750ef 1ef71d1d 0b 
          </CharString>
          <CharString index="234">
            0 -29 -13 -39 -42 vhcurveto
            -52 -55 177 callgsubr
            return
          </CharString>
          <CharString index="235">
            307 rmoveto
            -50 -26 -19 -40 vhcurveto
            -10 32 callsubr
            120 -86 callsubr
            return
          </CharString>
          <CharString index="236">
            6 11 hvcurveto
            96 vlineto
            12 -6 145 callgsubr
            return
          </CharString>
          <CharString index="237">
            181 callgsubr
            -173 vlineto
            -12 return
          </CharString>
          <CharString index="238">
            -2 139 callgsubr
            return
          </CharString>
          <CharString index="239">
            13 6 6 13 hvcurveto
            return
          </CharString>
          <CharString index="240">
            hlineto
            -98 -60 -54 -104 hvcurveto
            -114 267 callsubr
            -10 462 callgsubr
            29 22 50 vhcurveto
            return
          </CharString>
          <CharString index="241">
            -70 callsubr
            52 298 callsubr
            -273 vlineto
            -56 -26 -38 584 callsubr
            -49 -20 18 52 hvcurveto
            25 231 callsubr
            return
          </CharString>
          <CharString index="242">
            rmoveto
            -25 callsubr
            157 -86 callsubr
            -206 vlineto
            -45 -25 -33 -58 vhcurveto
            return
          </CharString>
          <CharString index="243">
            hlineto
            122 callsubr
            return
          </CharString>
          <CharString index="244">
            7 501 callsubr
            -13 vhcurveto
            -48 hlineto
            -11 445 callgsubr
            -7 vlineto
            -56 -28 -20 -54 vhcurveto
            -63 hlineto
            -54 -27 24 54 hvcurveto
            32 vlineto
            54 27 24 54 vhcurveto
            132 185 callgsubr
            return
          </CharString>
          <CharString index="245">
            hvcurveto
            -300 50 callgsubr
            return
          </CharString>
          <CharString index="246">
            -14 206 callgsubr
            return
          </CharString>
          <CharString index="247">
            hlineto
            53 22 318 callgsubr
            491 callsubr
            -53 600 callsubr
          </CharString>
          <CharString index="248">
            hhcurveto
            154 callsubr
            return
          </CharString>
          <CharString index="249">
            -32 -17 -25 -13 hvcurveto
            -4 return
          </CharString>
          <CharString index="250">
            -78 callsubr
            -87 101 callsubr
            return
          </CharString>
          <CharString index="251">
            hlineto
            -11 callgsubr
            return
          </CharString>
          <CharString index="252">
            563 callgsubr
            333 603 callsubr
            return
          </CharString>
          <CharString index="253">
            -300 rmoveto
            40 callsubr
            return
          </CharString>
          <CharString index="254">
            12 callsubr
            304 125 callgsubr
            -43 101 callsubr
            -110 hlineto
            -80 -52 -36 -79 hvcurveto
            -12 vlineto
            -82 43 -31 89 vhcurveto
            104 hlineto
            34 16 -11 412 callsubr
            -22 7 42 179 callsubr
            return
          </CharString>
          <CharString index="255">
            122 callgsubr
            669 vlineto
            -58 callsubr
            -669 0 callsubr
            return
          </CharString>
          <CharString index="256">
            -12 258 callgsubr
            return
          </CharString>
          <CharString index="257">
            652 rmoveto
            -45 15 -32 52 25 18 6 37 19 vhcurveto
            27 16 3 6 13 hhcurveto
            15 5 -8 -35 hvcurveto
            -18 vlineto
            -10 2 -2 8 vhcurveto
            30 hlineto
            7 2 2 10 hvcurveto
            38 vlineto
            45 -15 32 -52 -26 -15 -8 -30 -17 vhcurveto
            -32 -19 -5 -7 -11 hhcurveto
            -16 -4 9 34 hvcurveto
            19 vlineto
            9 -3 2 -7 vhcurveto
            -30 hlineto
            -7 -3 -2 -9 hvcurveto
            endchar
          </CharString>
          <CharString index="258">
            -503 -147 729 rmoveto
            -85 141 rlineto
            11 -7 -8 4 -11 hhcurveto
            -62 317 callgsubr
            41 -62 40 -49 74 -76 rlinecurve
            58 38 hlineto
            228 callgsubr
            -32 hlineto
            -78 -52 -40 -83 hvcurveto
            -34 vlineto
            return
          </CharString>
          <CharString index="259">
            rmoveto
            -72 -37 -37 -73 hvcurveto
            -82 vlineto
            -72 37 -38 72 vhcurveto
            46 hlineto
            73 36 38 72 hvcurveto
            82 vlineto
            73 -36 37 -73 vhcurveto
            return
          </CharString>
          <CharString index="260">
            hlineto
            -79 callsubr
            return
          </CharString>
          <CharString index="261">
            -27 144 callsubr
            return
          </CharString>
          <CharString index="262">
            hlineto
            88 51 56 96 hvcurveto
            return
          </CharString>
          <CharString index="263">
            -13 5 -4 12 vhcurveto
            return
          </CharString>
          <CharString index="264">
            -91 44 -41 88 vhcurveto
            35 hlineto
            14 7 5 15 hvcurveto
            34 vlineto
            13 -7 7 -14 vhcurveto
            -35 hlineto
            -41 -7 19 39 39 10 24 43 hvcurveto
            31 hlineto
            87 4 -54 -112 52 hvcurveto
            -10 5 7 -5 8 hhcurveto
            4 3 1 2 5 hvcurveto
            32 13 rlineto
            9 3 3 6 7 vvcurveto
            3 -1 5 -2 4 vhcurveto
            125 -52 -27 89 -135 hhcurveto
            return
          </CharString>
          <CharString index="265">
            hlineto
            27 -15 -26 16 -42 hhcurveto
            -289 hlineto
            -13 -6 132 callgsubr
            169 callsubr
            39 497 callgsubr
            -63 395 callsubr
            -78 160 callgsubr
            105 hlineto
            89 50 56 96 hvcurveto
            76 vlineto
            33 -12 23 -24 11 vhcurveto
            4 95 vlineto
            27 5 -11 -24 hvcurveto
            return
          </CharString>
          <CharString index="266">
            241 rmoveto
            -48 -27 -27 -49 vhcurveto
            -28 hlineto
            -54 -31 -29 callgsubr
            54 vhcurveto
            29 hlineto
            14 6 7 12 280 callgsubr
            -41 hlineto
            return
          </CharString>
          <CharString index="267">
            -16 -50 vhcurveto
            -63 136 callsubr
            return
          </CharString>
          <CharString index="268">
            80 vlineto
            86 -35 50 -71 19 vhcurveto
            -8 3 -3 3 7 vvcurveto
            82 371 callgsubr
            164 -22 callsubr
          </CharString>
          <CharString index="269">
            501 callgsubr
            -8 vhcurveto
            return
          </CharString>
          <CharString index="270">
            -8 -4 -4 -7 vhcurveto
            return
          </CharString>
          <CharString index="271">
            rmoveto
            12 -5 4 -11 245 callgsubr
            4 5 3 vhcurveto
            43 98 rlineto
            10 24 8 18 29 vvcurveto
            endchar
          </CharString>
          <CharString index="272">
            hlineto
            155 callgsubr
            endchar
          </CharString>
          <CharString index="273">
            80 vvcurveto
            172 callsubr
          </CharString>
          <CharString index="274">
            -65 -25 3 -24 7 -20 hvcurveto
            -15 7 10 80 callgsubr
            return
          </CharString>
          <CharString index="275">
            456 callsubr
            -13 vhcurveto
            return
          </CharString>
          <CharString index="276">
            5 -6 14 vhcurveto
            return
          </CharString>
          <CharString index="277">
            -78 callsubr
            -36 vlineto
            -42 -22 -14 -36 vhcurveto
            -42 hlineto
            return
          </CharString>
          <CharString index="278">
            -65 -25 3 -24 7 -20 hvcurveto
            -15 return
          </CharString>
          <CharString index="279">
            -84 callgsubr
            endchar
          </CharString>
          <CharString index="280">
            309 callgsubr
            3 -5 -7 hvcurveto
            return
          </CharString>
          <CharString index="281">
            343 callgsubr
            -51 hlineto
            -13 -6 99 callsubr
            -38 vhcurveto
            -55 hlineto
            -55 -24 408 callgsubr
            3 5 8 vhcurveto
            62 484 callsubr
          </CharString>
          <CharString index="282">
            836 580 callgsubr
            -6 hvcurveto
            -52 421 callgsubr
            11 hhcurveto
            48 hlineto
            8 9 4 8 return
          </CharString>
          <CharString index="283">
            -14 -5 -6 -13 hvcurveto
            -42 370 callsubr
            return
          </CharString>
          <CharString index="284">
            342 callgsubr
            -193 hlineto
            -8 return
          </CharString>
          <CharString index="285">
            191 callsubr
            93 hlineto
            return
          </CharString>
          <CharString index="286">
            308 callsubr
            445 callgsubr
            return
          </CharString>
          <CharString index="287">
            -15 callgsubr
            319 callgsubr
            return
          </CharString>
          <CharString index="288">
            vlineto
            176 callgsubr
            return
          </CharString>
          <CharString index="289">
            hvcurveto
            42 -6 callsubr
            return
          </CharString>
          <CharString index="290">
            vlineto
            229 callgsubr
            return
          </CharString>
          <CharString index="291">
            hlineto
            -13 334 callgsubr
            return
          </CharString>
          <CharString index="292">
            -8 24 vhcurveto
            123 -13 rlineto
            13 -2 5 8 12 vvcurveto
            53 513 callsubr
            -13 -1 vhcurveto
            -125 -15 15 151 rlineto
            443 callsubr
            -64 hlineto
            -11 -8 -4 -13 2 hvcurveto
            14 -151 -121 15 rlineto
            -13 1 -4 -6 -11 vvcurveto
            -53 vlineto
            -12 4 -8 13 2 vhcurveto
            return
          </CharString>
          <CharString index="293">
            rmoveto
            48 hlineto
            11 5 3 7 5 hvcurveto
            64 107 rlineto
            6 4 -2 327 callsubr
            return
          </CharString>
          <CharString index="294">
            -12 hvcurveto
            -43 vlineto
            return
          </CharString>
          <CharString index="295">
            hlineto
            26 20 12 31 hvcurveto
            return
          </CharString>
          <CharString index="296">
            -9 -9 -13 hvcurveto
            return
          </CharString>
          <CharString index="297">
            rmoveto
            -11 6 -6 10 vhcurveto
            60 hlineto
            11 416 callsubr
            -10 vhcurveto
            -60 hlineto
            -10 -6 -5 -12 hvcurveto
            -179 -95 rmoveto
            -11 300 callgsubr
            61 hlineto
            10 416 callsubr
            -9 vhcurveto
            -61 hlineto
            -10 396 callsubr
            endchar
          </CharString>
          <CharString index="298">
            21 callgsubr
            -33 vlineto
            -93 53 -52 93 vhcurveto
            return
          </CharString>
          <CharString index="299">
            298 callsubr
            -271 vlineto
            -57 -31 -33 -56 vhcurveto
            -59 hlineto
            -55 return
          </CharString>
          <CharString index="300">
            255 callgsubr
            endchar
          </CharString>
          <CharString index="301">
            hlineto
            -13 -6 132 callgsubr
            6 -6 14 vhcurveto
            12 44 callgsubr
            -89 160 callgsubr
            116 270 callgsubr
            return
          </CharString>
          <CharString index="302">
            vlineto
            180 callsubr
            return
          </CharString>
          <CharString index="303">
            321 callgsubr
            60 hlineto
            return
          </CharString>
          <CharString index="304">
            123 45 rmoveto
            -12 -6 -5 -13 -27 callsubr
            5 6 13 hvcurveto
            53 493 callgsubr
            return
          </CharString>
          <CharString index="305">
            -3 -8 vvcurveto
            -87 vlineto
            -10 -1 -9 -3 -8 vhcurveto
            1 return
          </CharString>
          <CharString index="306">
            vlineto
            98 -55 53 -96 vhcurveto
            return
          </CharString>
          <CharString index="307">
            6 8 10 6 -2 6 return
          </CharString>
          <CharString index="308">
            -41 -21 -16 -32 vhcurveto
            return
          </CharString>
          <CharString index="309">
            hlineto
            54 21 318 callgsubr
            7 58 callsubr
          </CharString>
          <CharString index="310" raw="1">
            1b340a0b   
          </CharString>
          <CharString index="311">
            151 callgsubr
            -91 -59 return
          </CharString>
          <CharString index="312">
            351 callsubr
            10 return
          </CharString>
          <CharString index="313">
            62 vvcurveto
            218 callsubr
          </CharString>
          <CharString index="314">
            5 -11 vhcurveto
            -41 hlineto
            -12 30 callgsubr
            424 callgsubr
            return
          </CharString>
          <CharString index="315">
            4 8 432 callsubr
            return
          </CharString>
          <CharString index="316">
            424 callsubr
            6 6 return
          </CharString>
          <CharString index="317">
            83 callsubr
            -93 60 -49 96 vhcurveto
            357 callgsubr
            return
          </CharString>
          <CharString index="318">
            266 rmoveto
            227 callgsubr
            return
          </CharString>
          <CharString index="319">
            0 -33 -16 -35 -37 vhcurveto
            -43 -41 532 callgsubr
            6 -7 9 vhcurveto
            65 441 callgsubr
            return
          </CharString>
          <CharString index="320">
            -2 callsubr
            51 hlineto
            13 163 callgsubr
            return
          </CharString>
          <CharString index="321">
            hlineto
            7 4 278 callsubr
            return
          </CharString>
          <CharString index="322">
            vhcurveto
            71 hlineto
            101 58 54 103 hvcurveto
            return
          </CharString>
          <CharString index="323">
            57 60 99 1 hvcurveto
            66 vlineto
            101 return
          </CharString>
          <CharString index="324">
            13 14 417 callsubr
            return
          </CharString>
          <CharString index="325">
            47 vlineto
            77 -48 37 -80 vhcurveto
            -91 hlineto
            -34 -16 8 38 hvcurveto
            8 62 callgsubr
          </CharString>
          <CharString index="326">
            63 callsubr
            137 255 callgsubr
            return
          </CharString>
          <CharString index="327">
            vlineto
            51 27 22 48 vhcurveto
            16 hlineto
            13 6 7 12 362 callgsubr
            return
          </CharString>
          <CharString index="328">
            155 callsubr
            70 vlineto
            33 -12 23 -24 11 vhcurveto
            4 return
          </CharString>
          <CharString index="329">
            rlineto
            -4 -4 -2 -4 -5 vvcurveto
            -6 440 callgsubr
            return
          </CharString>
          <CharString index="330">
            297 callgsubr
            -57 hlineto
            -11 return
          </CharString>
          <CharString index="331">
            -4 14 17 417 callsubr
            return
          </CharString>
          <CharString index="332">
            532 callsubr
            32 -20 return
          </CharString>
          <CharString index="333">
            426 callgsubr
            8 vhcurveto
            return
          </CharString>
          <CharString index="334">
            448 callgsubr
            -3 -6 vvcurveto
            -9 7 -5 10 vhcurveto
            66 434 callgsubr
            8 540 callsubr
            -8 5 6 -5 10 hhcurveto
            66 hlineto
            10 7 5 9 6 -2 3 return
          </CharString>
          <CharString index="335">
            rmoveto
            -68 -34 -45 -82 vhcurveto
            -44 hlineto
            -77 -59 callsubr
            return
          </CharString>
          <CharString index="336">
            -11 -8 -19 -28 vvcurveto
            return
          </CharString>
          <CharString index="337">
            10 6 -4 6 return
          </CharString>
          <CharString index="338">
            vlineto
            37 20 19 33 587 callsubr
            6 5 13 hvcurveto
            44 149 callgsubr
            -64 hlineto
            -35 -18 18 35 hvcurveto
            40 vlineto
            38 17 17 31 vhcurveto
            19 -75 callgsubr
            return
          </CharString>
          <CharString index="339">
            279 callsubr
            47 492 callgsubr
            return
          </CharString>
          <CharString index="340">
            -8 6 9 269 callgsubr
            return
          </CharString>
          <CharString index="341">
            11 -6 5 366 callsubr
            -11 hvcurveto
            return
          </CharString>
          <CharString index="342">
            6 13 hvcurveto
            53 312 callgsubr
            return
          </CharString>
          <CharString index="343">
            vlineto
            38 16 17 32 vhcurveto
            return
          </CharString>
          <CharString index="344">
            vlineto
            187 callgsubr
            return
          </CharString>
          <CharString index="345">
            6 7 12 hvcurveto
            return
          </CharString>
          <CharString index="346">
            -99 362 624 rmoveto
            12 4 -4 7 -13 hhcurveto
            -58 502 callsubr
            -12 -5 hvcurveto
            -45 -115 -135 -376 -45 -116 rrcurveto
            -13 -5 6 -5 13 hhcurveto
            57 564 callgsubr
            14 5 hvcurveto
            endchar
          </CharString>
          <CharString index="347">
            23 callgsubr
            294 128 callgsubr
            return
          </CharString>
          <CharString index="348">
            13 387 callsubr
            return
          </CharString>
          <CharString index="349">
            -101 61 -58 99 vhcurveto
            return
          </CharString>
          <CharString index="350">
            57 callsubr
            -33 vlineto
            -93 53 -52 93 vhcurveto
            93 hlineto
            return
          </CharString>
          <CharString index="351">
            40 25 hvcurveto
            1 2 3 272 callsubr
            -21 17 rlineto
            6 -7 -4 1 -4 hhcurveto
            return
          </CharString>
          <CharString index="352">
            7 -13 vhcurveto
            -39 hlineto
            -15 -7 -9 -18 hvcurveto
            -7 vlineto
            -81 40 -45 78 vhcurveto
            return
          </CharString>
          <CharString index="353">
            13 13 21 30 vvcurveto
            73 vlineto
            8 4 3 return
          </CharString>
          <CharString index="354">
            225 callsubr
            -57 hvcurveto
            return
          </CharString>
          <CharString index="355">
            vlineto
            38 callgsubr
            return
          </CharString>
          <CharString index="356">
            386 callsubr
            7 return
          </CharString>
          <CharString index="357">
            18 callsubr
            -39 vvcurveto
            return
          </CharString>
          <CharString index="358">
            343 callgsubr
            -108 hlineto
            -14 -9 -5 -8 -11 hvcurveto
            -118 -93 rlineto
            207 371 callsubr
            337 -103 callgsubr
            endchar
          </CharString>
          <CharString index="359">
            vhcurveto
            43 74 rlineto
            13 290 callgsubr
          </CharString>
          <CharString index="360">
            hlineto
            -77 585 callgsubr
            45 14 vlineto
            88 47 356 callgsubr
            -19 10 vhcurveto
            5 return
          </CharString>
          <CharString index="361">
            rmoveto
            -70 callsubr
            return
          </CharString>
          <CharString index="362">
            122 callgsubr
            609 273 callsubr
            return
          </CharString>
          <CharString index="363">
            169 callgsubr
            73 vlineto
            return
          </CharString>
          <CharString index="364">
            -11 114 callgsubr
            return
          </CharString>
          <CharString index="365">
            -74 hlineto
            3 callsubr
            return
          </CharString>
          <CharString index="366">
            vlineto
            39 -15 25 -20 309 callgsubr
            4 -5 -7 hvcurveto
            return
          </CharString>
          <CharString index="367">
            513 callsubr
            -12 vhcurveto
            return
          </CharString>
          <CharString index="368">
            rmoveto
            3 callsubr
            return
          </CharString>
          <CharString index="369">
            hlineto
            50 20 459 callsubr
            -105 vlineto
            return
          </CharString>
          <CharString index="370">
            60 -58 92 vhcurveto
            return
          </CharString>
          <CharString index="371">
            278 rmoveto
            -68 -34 325 callgsubr
            3 -5 -7 hvcurveto
            return
          </CharString>
          <CharString index="372">
            278 rmoveto
            -68 -34 -45 -82 vhcurveto
            -44 hlineto
            -77 -35 32 67 hvcurveto
            27 439 callsubr
            45 116 callsubr
            return
          </CharString>
          <CharString index="373">
            -5 623 -3 callgsubr
            return
          </CharString>
          <CharString index="374">
            vlineto
            226 callgsubr
            31 callsubr
            return
          </CharString>
          <CharString index="375">
            605 rmoveto
            12 503 callgsubr
            34 260 callsubr
            return
          </CharString>
          <CharString index="376">
            343 callsubr
            -82 vhcurveto
            -44 hlineto
            -77 585 callgsubr
            return
          </CharString>
          <CharString index="377">
            -85 callgsubr
            161 -20 callsubr
            return
          </CharString>
          <CharString index="378">
            -50 -14 28 48 48 14 27 50 51 14 -27 -48 return
          </CharString>
          <CharString index="379">
            366 callgsubr
            6 vhcurveto
            return
          </CharString>
          <CharString index="380">
            vlineto
            349 callsubr
            return
          </CharString>
          <CharString index="381">
            134 -209 rlineto
            -5 return
          </CharString>
          <CharString index="382">
            -7 13 vhcurveto
            42 hlineto
            return
          </CharString>
          <CharString index="383">
            -86 vlineto
            -102 58 -59 101 vhcurveto
            80 hlineto
            98 61 57 98 hvcurveto
            94 callgsubr
            return
          </CharString>
          <CharString index="384">
            rmoveto
            -68 -35 325 callgsubr
            4 -5 -7 hvcurveto
            return
          </CharString>
          <CharString index="385">
            -64 callsubr
            -80 101 callsubr
            return
          </CharString>
          <CharString index="386">
            hvcurveto
            -52 403 callgsubr
            return
          </CharString>
          <CharString index="387">
            hlineto
            45 35 39 callsubr
            return
          </CharString>
          <CharString index="388">
            vlineto
            -49 -15 -29 return
          </CharString>
          <CharString index="389">
            vlineto
            -12 7 -5 10 9 vhcurveto
            145 122 rlineto
            12 9 4 5 17 vvcurveto
            33 vlineto
            17 -5 5 -11 8 vhcurveto
            -145 122 rlineto
            -10 9 -7 -5 -12 vvcurveto
            return
          </CharString>
          <CharString index="390">
            176 callsubr
            304 397 callsubr
            return
          </CharString>
          <CharString index="391">
            -49 vhcurveto
            -101 hlineto
            441 callsubr
            27 -41 callsubr
            return
          </CharString>
          <CharString index="392">
            107 callsubr
            8 6 4 3 6 4 252 callsubr
          </CharString>
          <CharString index="393">
            233 callsubr
            -4 12 return
          </CharString>
          <CharString index="394">
            101 callsubr
            -103 hlineto
            -80 -51 -38 -79 hvcurveto
            -15 vlineto
            -82 42 -40 89 vhcurveto
            return
          </CharString>
          <CharString index="395">
            hlineto
            -13 -6 -5 -12 316 callsubr
            -56 hvcurveto
            return
          </CharString>
          <CharString index="396">
            56 callgsubr
            endchar
          </CharString>
          <CharString index="397">
            6 -4 11 vhcurveto
            return
          </CharString>
          <CharString index="398">
            hlineto
            234 callgsubr
            -16 hlineto
            198 callgsubr
            return
          </CharString>
          <CharString index="399">
            5 -9 vhcurveto
            -58 hlineto
            -12 -4 -4 -11 -6 hvcurveto
            -113 -204 rlineto
            -4 -7 -1 -7 -9 vvcurveto
            -19 vlineto
            -10 6 -5 10 vhcurveto
            138 -57 hlineto
            -7 3 -3 return
          </CharString>
          <CharString index="400">
            -296 154 379 297 callgsubr
            -69 hlineto
            -11 -5 -5 -11 hvcurveto
            -121 vlineto
            -12 457 callgsubr
            69 hlineto
            10 6 6 12 hvcurveto
            endchar
          </CharString>
          <CharString index="401">
            -191 255 279 rmoveto
            13 4 6 12 hvcurveto
            44 387 callgsubr
            -13 vhcurveto
            -198 hlineto
            -13 -4 -6 -12 hvcurveto
            -44 vlineto
            -12 333 callsubr
            endchar
          </CharString>
          <CharString index="402">
            92 rmoveto
            -71 callgsubr
            return
          </CharString>
          <CharString index="403">
            vvcurveto
            -7 300 callgsubr
            return
          </CharString>
          <CharString index="404">
            12 vhcurveto
            49 hlineto
            11 6 return
          </CharString>
          <CharString index="405">
            hlineto
            103 callgsubr
            return
          </CharString>
          <CharString index="406">
            hlineto
            376 callsubr
            return
          </CharString>
          <CharString index="407">
            vlineto
            53 24 27 return
          </CharString>
          <CharString index="408">
            hlineto
            48 callgsubr
            return
          </CharString>
          <CharString index="409">
            hlineto
            -34 -57 rlineto
            -22 -15 0 -37 32 hhcurveto
            31 52 14 24 1 hvcurveto
            3 11 -6 5 -15 -1 rrcurveto
            -1 -4 -30 -2 -8 hhcurveto
            -3 29 45 21 13 hvcurveto
            return
          </CharString>
          <CharString index="410">
            571 callgsubr
            7 11 6 -2 6 -3 9 hvcurveto
            return
          </CharString>
          <CharString index="411">
            7 49 328 callgsubr
            return
          </CharString>
          <CharString index="412">
            -304 150 480 callsubr
            return
          </CharString>
          <CharString index="413">
            vlineto
            37 16 9 34 vhcurveto
            145 188 callsubr
            105 vlineto
            7 4 5 return
          </CharString>
          <CharString index="414">
            10 329 callsubr
            return
          </CharString>
          <CharString index="415">
            355 callgsubr
            -48 hlineto
            -13 return
          </CharString>
          <CharString index="416">
            85 rmoveto
            -50 -22 25 49 hvcurveto
            return
          </CharString>
          <CharString index="417">
            vlineto
            -46 17 -28 41 return
          </CharString>
          <CharString index="418">
            -14 7 -5 12 vhcurveto
            53 hlineto
            13 6 -31 callsubr
            512 -85 callgsubr
            65 -71 callsubr
            return
          </CharString>
          <CharString index="419">
            0 -35 -18 -45 -40 vhcurveto
            -54 -46 rlineto
            -4 -3 -1 -4 577 callsubr
            71 hlineto
            10 9 4 6 6 hvcurveto
            9 8 65 56 26 return
          </CharString>
          <CharString index="420">
            374 callsubr
            -136 vlineto
            208 290 rmoveto
            304 callgsubr
            return
          </CharString>
          <CharString index="421">
            37 17 -14 -35 -36 -16 -17 -39 hvcurveto
            579 callgsubr
            -61 vlineto
            -91 52 -65 583 callsubr
            56 38 20 34 19 hvcurveto
            4 return
          </CharString>
          <CharString index="422">
            -8 -3 256 callgsubr
            return
          </CharString>
          <CharString index="423">
            hvcurveto
            -48 vlineto
            -12 6 -7 225 callsubr
            return
          </CharString>
          <CharString index="424">
            rmoveto
            176 callsubr
            return
          </CharString>
          <CharString index="425">
            605 rmoveto
            12 -5 6 -14 vhcurveto
            return
          </CharString>
          <CharString index="426">
            -87 52 -92 131 vhcurveto
            return
          </CharString>
          <CharString index="427">
            hvcurveto
            -57 281 callsubr
            return
          </CharString>
          <CharString index="428">
            hmoveto
            11 6 4 13 hvcurveto
            return
          </CharString>
          <CharString index="429">
            -5 -2 -4 -6 vvcurveto
            -9 return
          </CharString>
          <CharString index="430">
            268 callsubr
            -200 hlineto
            -13 485 callgsubr
            13 vhcurveto
            endchar
          </CharString>
          <CharString index="431">
            146 vlineto
            7 return
          </CharString>
          <CharString index="432">
            -4 hlineto
            66 callsubr
            return
          </CharString>
          <CharString index="433">
            rmoveto
            -13 7 -6 178 callgsubr
            6 13 hvcurveto
            52 458 callgsubr
            return
          </CharString>
          <CharString index="434">
            6 -9 hhcurveto
            -46 hlineto
            -8 -4 -2 -8 -4 331 callsubr
            return
          </CharString>
          <CharString index="435">
            46 95 hvcurveto
            62 vlineto
            87 -63 36 -78 -77 -55 -44 -71 vhcurveto
            -51 vlineto
            -15 return
          </CharString>
          <CharString index="436">
            6 3 7 5 hvcurveto
            63 107 rlineto
            6 4 return
          </CharString>
          <CharString index="437">
            451 rmoveto
            163 callsubr
            -79 hlineto
            return
          </CharString>
          <CharString index="438">
            hvcurveto
            -40 -78 -41 78 rlineto
            8 return
          </CharString>
          <CharString index="439">
            -7 409 callsubr
            return
          </CharString>
          <CharString index="440">
            4 -6 13 vhcurveto
            return
          </CharString>
          <CharString index="441">
            rmoveto
            4 callgsubr
            206 371 callsubr
            160 -86 callsubr
            -204 vlineto
            -47 -25 -33 -58 vhcurveto
            return
          </CharString>
          <CharString index="442">
            18 23 18 20 rrcurveto
            4 -104 213 callsubr
            294 248 callsubr
            27 hlineto
            return
          </CharString>
          <CharString index="443">
            vhcurveto
            60 -22 callsubr
          </CharString>
          <CharString index="444">
            585 callsubr
            148 393 callsubr
            return
          </CharString>
          <CharString index="445">
            hlineto
            307 callsubr
            return
          </CharString>
          <CharString index="446">
            4 vlineto
            539 callgsubr
            return
          </CharString>
          <CharString index="447">
            -5 350 callgsubr
            return
          </CharString>
          <CharString index="448">
            vlineto
            242 callgsubr
            return
          </CharString>
          <CharString index="449">
            hlineto
            125 callsubr
            return
          </CharString>
          <CharString index="450">
            278 rmoveto
            -68 -35 -45 return
          </CharString>
          <CharString index="451">
            565 callgsubr
            8 vhcurveto
            return
          </CharString>
          <CharString index="452">
            rmoveto
            -45 -25 -33 -58 vhcurveto
            -19 508 callsubr
            156 298 callsubr
            return
          </CharString>
          <CharString index="453">
            vlineto
            33 -12 23 -24 11 vhcurveto
            4 127 393 callsubr
            return
          </CharString>
          <CharString index="454">
            52 hlineto
            -12 callsubr
            return
          </CharString>
          <CharString index="455">
            -11 457 callgsubr
            return
          </CharString>
          <CharString index="456">
            13 -5 4 -12 vhcurveto
            return
          </CharString>
          <CharString index="457">
            12 -5 5 -13 vhcurveto
            return
          </CharString>
          <CharString index="458">
            hlineto
            11 6 8 return
          </CharString>
          <CharString index="459">
            rmoveto
            234 callsubr
            -121 vlineto
            -11 531 callsubr
            6 11 hvcurveto
            return
          </CharString>
          <CharString index="460">
            0 -38 -19 -53 -41 vhcurveto
            -63 -48 rlineto
            -6 -5 -2 -5 -5 296 callsubr
            80 hlineto
            11 10 5 7 8 hvcurveto
            return
          </CharString>
          <CharString index="461">
            -96 rlineto
            -12 -6 4 -5 10 hhcurveto
            return
          </CharString>
          <CharString index="462">
            hlineto
            241 callgsubr
            return
          </CharString>
          <CharString index="463" raw="1">
            b80ab507 0b  
          </CharString>
          <CharString index="464">
            hvcurveto
            42 149 callgsubr
            return
          </CharString>
          <CharString index="465">
            4 6 11 hvcurveto
            return
          </CharString>
          <CharString index="466">
            rmoveto
            40 12 -15 -40 hvcurveto
            -76 vlineto
            -40 -12 -15 -40 vhcurveto
            -21 hlineto
            -41 -12 15 40 hvcurveto
            76 vlineto
            40 12 15 41 vhcurveto
            return
          </CharString>
          <CharString index="467">
            7 7 16 vvcurveto
            44 vlineto
            7 -5 5 -7 vhcurveto
            -15 -30 -27 -47 -70 -64 31 -65 hhcurveto
            -32 -29 -7 -8 -21 hvcurveto
            -17 return
          </CharString>
          <CharString index="468">
            -5 11 hhcurveto
            47 hlineto
            9 8 4 8 7 hvcurveto
            84 100 rlineto
            10 return
          </CharString>
          <CharString index="469">
            228 -99 callgsubr
            return
          </CharString>
          <CharString index="470">
            -34 21 62 hvcurveto
            10 hlineto
            80 64 31 98 89 return
          </CharString>
          <CharString index="471">
            -28 -71 vvcurveto
            -19 257 callgsubr
            return
          </CharString>
          <CharString index="472">
            6 5 13 hvcurveto
            44 312 callgsubr
            return
          </CharString>
          <CharString index="473">
            -10 vhcurveto
            -68 hlineto
            -12 -5 -5 return
          </CharString>
          <CharString index="474">
            vlineto
            443 callsubr
            return
          </CharString>
          <CharString index="475">
            vlineto
            57 539 callsubr
            return
          </CharString>
          <CharString index="476">
            -96 rlineto
            -12 -6 3 -5 return
          </CharString>
          <CharString index="477">
            vlineto
            -13 169 callsubr
            return
          </CharString>
          <CharString index="478">
            vlineto
            443 callgsubr
            return
          </CharString>
          <CharString index="479">
            20 -11 -24 11 -37 hhcurveto
            return
          </CharString>
          <CharString index="480">
            312 callgsubr
            -12 vhcurveto
            return
          </CharString>
          <CharString index="481">
            hlineto
            41 586 callsubr
            return
          </CharString>
          <CharString index="482">
            8 503 callsubr
            return
          </CharString>
          <CharString index="483">
            50 22 -25 -49 hvcurveto
            return
          </CharString>
          <CharString index="484" raw="1">
            1f87f306 920b  
          </CharString>
          <CharString index="485">
            -19 -16 -50 vhcurveto
            return
          </CharString>
          <CharString index="486">
            41 12 -15 -40 hvcurveto
            -75 vlineto
            -40 -12 -16 -41 vhcurveto
            -20 hlineto
            -42 -11 16 40 hvcurveto
            75 vlineto
            40 11 15 42 vhcurveto
            return
          </CharString>
          <CharString index="487">
            -7 6 -13 vhcurveto
            return
          </CharString>
          <CharString index="488">
            hvcurveto
            380 -76 callgsubr
            endchar
          </CharString>
          <CharString index="489">
            rmoveto
            315 callsubr
            return
          </CharString>
          <CharString index="490">
            hmoveto
            98 145 callsubr
            -98 vhcurveto
            return
          </CharString>
          <CharString index="491">
            -1 -7 -1 -7 vhcurveto
            return
          </CharString>
          <CharString index="492">
            hvcurveto
            -18 vlineto
            -14 6 return
          </CharString>
          <CharString index="493">
            vhcurveto
            51 hlineto
            12 return
          </CharString>
          <CharString index="494">
            hvcurveto
            42 vlineto
            13 return
          </CharString>
          <CharString index="495">
            -29 callsubr
            -76 323 callgsubr
            -57 vlineto
            return
          </CharString>
          <CharString index="496">
            -4 hlineto
            -21 -11 -8 -19 -28 vvcurveto
            -39 254 callgsubr
            -46 vvcurveto
            return
          </CharString>
          <CharString index="497">
            189 callgsubr
            140 476 callgsubr
          </CharString>
          <CharString index="498">
            hhcurveto
            415 callgsubr
            return
          </CharString>
          <CharString index="499">
            -4 hlineto
            566 callsubr
            return
          </CharString>
          <CharString index="500">
            vlineto
            103 callgsubr
            return
          </CharString>
          <CharString index="501">
            vlineto
            -13 6 -7 13 vhcurveto
            return
          </CharString>
          <CharString index="502">
            281 callsubr
            -62 vhcurveto
            return
          </CharString>
          <CharString index="503">
            -5 -5 -12 hvcurveto
            return
          </CharString>
          <CharString index="504">
            170 callsubr
            -101 -59 -59 -100 hvcurveto
            -86 vlineto
            return
          </CharString>
          <CharString index="505">
            rmoveto
            119 callsubr
            return
          </CharString>
          <CharString index="506">
            339 callgsubr
            -43 494 callgsubr
            return
          </CharString>
          <CharString index="507">
            vlineto
            -15 6 -5 297 callsubr
            5 15 hvcurveto
            return
          </CharString>
          <CharString index="508">
            rmoveto
            580 callsubr
            -17 hlineto
            return
          </CharString>
          <CharString index="509">
            107 rlineto
            6 4 -2 6 -8 hhcurveto
            return
          </CharString>
          <CharString index="510">
            rlineto
            -3 -4 -2 -3 -4 vvcurveto
            return
          </CharString>
          <CharString index="511">
            -2 4 -3 5 hvcurveto
            return
          </CharString>
          <CharString index="512">
            13 512 callgsubr
            return
          </CharString>
          <CharString index="513">
            7 -7 13 vhcurveto
            return
          </CharString>
          <CharString index="514">
            117 callsubr
            7 return
          </CharString>
          <CharString index="515">
            179 callgsubr
            534 callgsubr
            -85 vlineto
            return
          </CharString>
          <CharString index="516">
            -3 3 7 hvcurveto
            return
          </CharString>
          <CharString index="517">
            hvcurveto
            -45 -115 -159 -376 -45 -116 rrcurveto
            -14 -5 5 -4 12 hhcurveto
            39 hlineto
            12 return
          </CharString>
          <CharString index="518">
            -84 hlineto
            89 callsubr
            72 344 callsubr
            return
          </CharString>
          <CharString index="519">
            -38 hvcurveto
            -12 vlineto
            -37 -16 -13 -34 vhcurveto
            -86 hlineto
            -47 return
          </CharString>
          <CharString index="520" raw="1">
            55231ff8 7a1d0b  
          </CharString>
          <CharString index="521">
            hlineto
            13 6 -31 callsubr
            72 vlineto
            8 return
          </CharString>
          <CharString index="522">
            -6 -7 -8 -5 2 456 callgsubr
            return
          </CharString>
          <CharString index="523">
            331 callgsubr
            -7 4 return
          </CharString>
          <CharString index="524">
            vvcurveto
            34 563 callsubr
            return
          </CharString>
          <CharString index="525">
            566 callgsubr
            -15 vhcurveto
            return
          </CharString>
          <CharString index="526">
            566 callgsubr
            -14 vhcurveto
            return
          </CharString>
          <CharString index="527">
            hlineto
            7 9 2 0 hvcurveto
            return
          </CharString>
          <CharString index="528">
            hlineto
            386 callgsubr
            return
          </CharString>
          <CharString index="529">
            14 -7 5 -12 vhcurveto
            return
          </CharString>
          <CharString index="530">
            53 25 -30 -50 hvcurveto
            return
          </CharString>
          <CharString index="531">
            vhcurveto
            62 hlineto
            14 return
          </CharString>
          <CharString index="532">
            4 7 1 vhcurveto
            return
          </CharString>
          <CharString index="533">
            rmoveto
            12 -6 4 -10 180 callgsubr
            return
          </CharString>
          <CharString index="534">
            187 callgsubr
            65 hlineto
            12 4 3 14 hvcurveto
            476 367 callsubr
            return
          </CharString>
          <CharString index="535">
            rlineto
            -3 -4 -2 -4 -4 vvcurveto
            -7 5 -6 590 callgsubr
            return
          </CharString>
          <CharString index="536">
            rmoveto
            4 callgsubr
            155 vlineto
            181 -199 rlineto
            -22 -13 -23 -12 -35 hhcurveto
            return
          </CharString>
          <CharString index="537">
            174 callgsubr
            6 -7 14 vhcurveto
            106 155 callsubr
            49 vlineto
            33 -13 return
          </CharString>
          <CharString index="538">
            hvcurveto
            85 100 rlineto
            10 7 -4 7 -12 hhcurveto
            endchar
          </CharString>
          <CharString index="539">
            vhcurveto
            159 hlineto
            return
          </CharString>
          <CharString index="540">
            hvcurveto
            221 vlineto
            return
          </CharString>
          <CharString index="541">
            21 -18 -56 vhcurveto
            return
          </CharString>
          <CharString index="542">
            -2 callsubr
            53 392 callgsubr
            511 vlineto
            7 4 5 return
          </CharString>
          <CharString index="543">
            hlineto
            -36 -41 rlineto
            -19 -17 11 -30 24 hhcurveto
            20 hlineto
            38 10 -5 -22 hvcurveto
            -2 vlineto
            return
          </CharString>
          <CharString index="544">
            23 callgsubr
            511 -85 callgsubr
            return
          </CharString>
          <CharString index="545">
            25 50 vhcurveto
            119 hlineto
            7 500 callsubr
            return
          </CharString>
          <CharString index="546">
            12 vlineto
            89 48 40 88 hvcurveto
            return
          </CharString>
          <CharString index="547">
            -12 561 callsubr
            return
          </CharString>
          <CharString index="548">
            -50 -19 18 52 hvcurveto
            return
          </CharString>
          <CharString index="549">
            10 587 callsubr
            return
          </CharString>
          <CharString index="550">
            13 -6 4 -11 vhcurveto
            return
          </CharString>
          <CharString index="551">
            7 -6 13 vhcurveto
            return
          </CharString>
          <CharString index="552">
            hlineto
            -14 -6 -7 return
          </CharString>
          <CharString index="553">
            142 callgsubr
            -5 vlineto
            -93 53 -51 100 vhcurveto
            72 hlineto
            return
          </CharString>
          <CharString index="554">
            216 470 callsubr
            return
          </CharString>
          <CharString index="555">
            296 callsubr
            62 hlineto
            return
          </CharString>
          <CharString index="556">
            -20 -60 385 callsubr
            -6 return
          </CharString>
          <CharString index="557">
            hlineto
            423 callgsubr
            return
          </CharString>
          <CharString index="558">
            vlineto
            378 callgsubr
            vhcurveto
            return
          </CharString>
          <CharString index="559">
            hlineto
            534 callsubr
            return
          </CharString>
          <CharString index="560">
            hlineto
            310 callgsubr
            return
          </CharString>
          <CharString index="561">
            6 537 callgsubr
            return
          </CharString>
          <CharString index="562">
            rlineto
            5 hlineto
            76 return
          </CharString>
          <CharString index="563">
            vlineto
            11 -4 6 return
          </CharString>
          <CharString index="564">
            -22 -38 -15 hvcurveto
            -4 hlineto
            108 callsubr
            return
          </CharString>
          <CharString index="565">
            hlineto
            17 9 4 17 hvcurveto
            34 594 callsubr
            return
          </CharString>
          <CharString index="566">
            112 callsubr
            -50 -20 160 callsubr
            return
          </CharString>
          <CharString index="567">
            hhcurveto
            -57 -29 409 callgsubr
            -4 hlineto
            41 return
          </CharString>
          <CharString index="568">
            17 33 31 20 -16 -31 vhcurveto
            -55 vlineto
            -40 return
          </CharString>
          <CharString index="569">
            -7 -4 3 8 hvcurveto
            return
          </CharString>
          <CharString index="570">
            97 563 callgsubr
            return
          </CharString>
          <CharString index="571">
            564 callgsubr
            13 return
          </CharString>
          <CharString index="572">
            14 5 6 13 hvcurveto
            return
          </CharString>
          <CharString index="573">
            4 4 12 hvcurveto
            return
          </CharString>
          <CharString index="574">
            -18 -34 -46 vvcurveto
            return
          </CharString>
          <CharString index="575">
            32 hlineto
            13 238 callsubr
            40 -6 callsubr
            -11 hlineto
            return
          </CharString>
          <CharString index="576">
            -5 623 rmoveto
            -71 callgsubr
            return
          </CharString>
          <CharString index="577">
            154 86 callgsubr
            return
          </CharString>
          <CharString index="578">
            -40 rmoveto
            38 24 22 40 hvcurveto
            51 vlineto
            38 -24 22 -38 vhcurveto
            -43 hlineto
            return
          </CharString>
          <CharString index="579">
            hlineto
            -97 64 433 callgsubr
            52 hlineto
            56 40 536 callgsubr
            return
          </CharString>
          <CharString index="580">
            -42 hlineto
            -101 -59 -59 -100 hvcurveto
            -34 vlineto
            -102 58 -58 101 vhcurveto
            79 hlineto
            return
          </CharString>
          <CharString index="581">
            8 vhcurveto
            72 255 callgsubr
            return
          </CharString>
          <CharString index="582">
            299 callsubr
            -325 298 callgsubr
            endchar
          </CharString>
          <CharString index="583">
            74 rlineto
            14 290 callgsubr
          </CharString>
          <CharString index="584">
            -9 -10 -13 hvcurveto
            return
          </CharString>
          <CharString index="585">
            -75 vlineto
            -67 22 -50 48 -25 vhcurveto
            -1 vlineto
            -50 -19 -10 -48 vhcurveto
            return
          </CharString>
          <CharString index="586">
            395 rmoveto
            543 callgsubr
            return
          </CharString>
          <CharString index="587">
            139 rmoveto
            234 callsubr
            return
          </CharString>
          <CharString index="588">
            -57 -24 29 54 hvcurveto
            73 574 callgsubr
            180 return
          </CharString>
          <CharString index="589">
            623 254 callsubr
            return
          </CharString>
          <CharString index="590">
            -52 callgsubr
            388 return
          </CharString>
          <CharString index="591">
            -66 callsubr
            endchar
          </CharString>
          <CharString index="592">
            -5 -7 -8 -5 1 456 callgsubr
            return
          </CharString>
          <CharString index="593">
            hlineto
            10 576 callsubr
            return
          </CharString>
          <CharString index="594">
            555 callsubr
            38 hlineto
            12 return
          </CharString>
          <CharString index="595">
            -56 101 callsubr
            return
          </CharString>
          <CharString index="596">
            -80 451 callgsubr
            return
          </CharString>
          <CharString index="597">
            -50 493 callsubr
            return
          </CharString>
          <CharString index="598">
            6 23 callgsubr
            19 vlineto
            103 return
          </CharString>
          <CharString index="599">
            vvcurveto
            35 20 10 36 vhcurveto
            return
          </CharString>
          <CharString index="600">
            hlineto
            -13 -6 -5 -14 hvcurveto
            return
          </CharString>
          <CharString index="601">
            604 callsubr
            -13 vhcurveto
            return
          </CharString>
          <CharString index="602">
            -12 hvcurveto
            -44 vlineto
            -12 6 return
          </CharString>
          <CharString index="603">
            vlineto
            -50 604 callgsubr
            return
          </CharString>
          <CharString index="604">
            -14 vhcurveto
            -47 hlineto
            -11 -7 return
          </CharString>
          <CharString index="605">
            vlineto
            90 48 40 87 hvcurveto
            return
          </CharString>
          <CharString index="606">
            101 vlineto
            49 -14 36 return
          </CharString>
          <CharString index="607">
            4 -3 -7 hvcurveto
            return
          </CharString>
          <CharString index="608">
            vlineto
            15 -7 8 return
          </CharString>
          <CharString index="609">
            hlineto
            -13 -5 -6 return
          </CharString>
          <CharString index="610">
            5 9 9 hvcurveto
            return
          </CharString>
          <CharString index="611">
            16 26 14 406 callgsubr
            7 -6 12 vhcurveto
            53 hlineto
            return
          </CharString>
          <CharString index="612">
            92 8 callgsubr
            return
          </CharString>
          <CharString index="613">
            hlineto
            -96 -58 -56 -97 hvcurveto
            -336 vlineto
            -97 58 -57 96 vhcurveto
            return
          </CharString>
          <CharString index="614">
            rmoveto
            -58 -24 34 51 hvcurveto
            170 vlineto
            51 24 34 58 vhcurveto
            return
          </CharString>
          <CharString index="615">
            hlineto
            -25 callsubr
            return
          </CharString>
          <CharString index="616">
            hlineto
            -11 593 callsubr
            11 vhcurveto
            return
          </CharString>
          <CharString index="617">
            329 callsubr
            -2 6 -8 hhcurveto
            return
          </CharString>
          <CharString index="618">
            23 22 49 vhcurveto
            return
          </CharString>
          <CharString index="619">
            16 4 20 hhcurveto
            return
          </CharString>
          <CharString index="620">
            vlineto
            11 -5 6 return
          </CharString>
          <CharString index="621">
            hlineto
            12 503 callgsubr
            51 vlineto
            12 -5 5 -12 vhcurveto
            return
          </CharString>
          <CharString index="622">
            hlineto
            319 callsubr
            90 hlineto
            56 37 19 34 return
          </CharString>
          <CharString index="623">
            rmoveto
            13 -89 callsubr
            -13 vhcurveto
            return
          </CharString>
          <CharString index="624">
            hlineto
            -14 334 callgsubr
            -37 vlineto
            -11 4 -6 14 vhcurveto
            return
          </CharString>
          <CharString index="625">
            rmoveto
            -50 -25 -19 -40 vhcurveto
            -11 201 callgsubr
            return
          </CharString>
          <CharString index="626">
            vlineto
            15 -6 5 -14 vhcurveto
            -45 hlineto
            -14 -5 -5 -15 hvcurveto
            return
          </CharString>
          <CharString index="627">
            vlineto
            -16 7 -7 15 vhcurveto
            53 hlineto
            15 7 7 16 hvcurveto
            return
          </CharString>
          <CharString index="628">
            hlineto
            37 21 17 38 hvcurveto
            60 vlineto
            36 -21 16 -37 vhcurveto
            return
          </CharString>
          <CharString index="629">
            rlineto
            -8 -6 -4 -5 -8 vvcurveto
            -5 2 -5 2 -3 vhcurveto
            return
          </CharString>
          <CharString index="630">
            hlineto
            256 callsubr
            54 28 29 54 vhcurveto
            return
          </CharString>
          <CharString index="631">
            hlineto
            -14 6 -5 178 callgsubr
            -31 callsubr
            return
          </CharString>
          <CharString index="632">
            hlineto
            -34 -19 16 35 hvcurveto
            13 vlineto
            34 18 16 35 vhcurveto
            return
          </CharString>
          <CharString index="633">
            hlineto
            50 26 callgsubr
            return
          </CharString>
          <CharString index="634">
            rlineto
            6 -8 -3 1 -5 hhcurveto
            -6 return
          </CharString>
          <CharString index="635">
            -55 -26 -39 584 callsubr
            return
          </CharString>
          <CharString index="636">
            -1 5 540 callgsubr
            13 -4 return
          </CharString>
          <CharString index="637">
            -6 callsubr
            -62 hlineto
            return
          </CharString>
          <CharString index="638">
            5 -7 12 vhcurveto
            68 hlineto
            11 5 return
          </CharString>
          <CharString index="639">
            14 vhcurveto
            38 hlineto
            45 return
          </CharString>
          <CharString index="640">
            -57 -59 -99 -1 hvcurveto
            return
          </CharString>
          <CharString index="641">
            13 503 callgsubr
            return
          </CharString>
          <CharString index="642">
            hlineto
            13 9 5 9 return
          </CharString>
          <CharString index="643">
            -15 -4 -6 -13 hvcurveto
            return
          </CharString>
          <CharString index="644">
            -100 61 -59 99 vhcurveto
            return
          </CharString>
          <CharString index="645">
            vlineto
            12 -6 7 return
          </CharString>
          <CharString index="646">
            30 22 49 vhcurveto
            return
          </CharString>
          <CharString index="647">
            5 hvcurveto
            77 109 455 callsubr
            -109 rlineto
            return
          </CharString>
          <CharString index="648">
            79 39 46 83 hvcurveto
            4 vlineto
            18 -8 9 -15 vhcurveto
            return
          </CharString>
          <CharString index="649">
            15 5 6 13 hvcurveto
            42 418 callsubr
            return
          </CharString>
          <CharString index="650">
            -7 3 -3 7 vhcurveto
            29 hlineto
            6 3 3 7 hvcurveto
            return
          </CharString>
          <CharString index="651">
            -15 -4 -5 -14 hvcurveto
            -41 vlineto
            -14 4 -5 15 vhcurveto
            return
          </CharString>
          <CharString index="652">
            370 callgsubr
            -165 hlineto
            -69 -44 -43 return
          </CharString>
          <CharString index="653">
            224 callgsubr
            -6 13 vhcurveto
            return
          </CharString>
          <CharString index="654">
            3 -8 vhcurveto
            -38 hlineto
            -7 -5 -3 -9 hvcurveto
            endchar
          </CharString>
          <CharString index="655">
            -7 12 vhcurveto
            63 549 callgsubr
          </CharString>
          <CharString index="656">
            320 callgsubr
            endchar
          </CharString>
          <CharString index="657">
            -3 -12 hvcurveto
            -17 vlineto
            -12 return
          </CharString>
          <CharString index="658">
            12 vhcurveto
            63 hlineto
            12 5 return
          </CharString>
          <CharString index="659">
            vlineto
            581 callsubr
            return
          </CharString>
          <CharString index="660">
            vlineto
            -100 57 -56 100 vhcurveto
            return
          </CharString>
          <CharString index="661">
            hlineto
            582 callsubr
            return
          </CharString>
          <CharString index="662">
            -8 6 9 -5 12 hhcurveto
            return
          </CharString>
          <CharString index="663">
            -56 -99 hvcurveto
            -333 vlineto
            return
          </CharString>
          <CharString index="664">
            25 11 21 12 hvcurveto
            4 return
          </CharString>
          <CharString index="665">
            4 -11 hhcurveto
            -78 hlineto
            -11 return
          </CharString>
          <CharString index="666">
            vlineto
            12 602 callsubr
            return
          </CharString>
          <CharString index="667">
            vlineto
            -12 6 -7 13 vhcurveto
            return
          </CharString>
          <CharString index="668">
            hvcurveto
            -44 vlineto
            -12 6 -6 return
          </CharString>
          <CharString index="669">
            149 hlineto
            13 return
          </CharString>
          <CharString index="670">
            20 11 36 vhcurveto
            return
          </CharString>
          <CharString index="671">
            6 hvcurveto
            -4 14 return
          </CharString>
          <CharString index="672">
            -56 vlineto
            -8 -4 return
          </CharString>
          <CharString index="673">
            -30 -15 -11 -32 return
          </CharString>
          <CharString index="674">
            -503 -62 623 rmoveto
            464 callgsubr
            return
          </CharString>
          <CharString index="675">
            -93 263 callsubr
            21 hlineto
            48 30 17 25 return
          </CharString>
          <CharString index="676">
            hlineto
            465 callsubr
            463 61 rmoveto
            -23 return
          </CharString>
          <CharString index="677">
            3 -4 2 -4 rrcurveto
            -8 7 8 -5 12 hhcurveto
            return
          </CharString>
          <CharString index="678">
            5 -8 -35 hvcurveto
            -19 vlineto
            -9 2 -3 8 vhcurveto
            return
          </CharString>
          <CharString index="679">
            29 44 vvcurveto
            126 vlineto
            7 return
          </CharString>
          <CharString index="680">
            703 rmoveto
            -11 -8 -4 -12 return
          </CharString>
          <CharString index="681">
            rlineto
            -5 4 5 -7 10 hhcurveto
            return
          </CharString>
          <CharString index="682" raw="1">
            f71a05fb 13077d0b  
          </CharString>
          <CharString index="683">
            5 156 callgsubr
            return
          </CharString>
          <CharString index="684">
            -4 vvcurveto
            -6 5 -7 10 vhcurveto
            return
          </CharString>
          <CharString index="685">
            425 callgsubr
            43 vlineto
            38 return
          </CharString>
          <CharString index="686">
            hvcurveto
            109 vlineto
            -4 callgsubr
            return
          </CharString>
          <CharString index="687">
            -39 -21 -17 -31 vhcurveto
            return
          </CharString>
          <CharString index="688">
            12 -5 4 -11 vhcurveto
            return
          </CharString>
          <CharString index="689">
            -57 -24 29 53 hvcurveto
            return
          </CharString>
          <CharString index="690">
            125 vhcurveto
            36 hlineto
            return
          </CharString>
          <CharString index="691">
            -74 -1 vhcurveto
            -74 hlineto
            return
          </CharString>
          <CharString index="692">
            -20 10 vhcurveto
            5 return
          </CharString>
          <CharString index="693">
            20 -23 -51 hvcurveto
            return
          </CharString>
          <CharString index="694">
            vhcurveto
            64 hlineto
            13 return
          </CharString>
          <CharString index="695">
            -107 rlineto
            -7 5 return
          </CharString>
          <CharString index="696">
            15 -17 -30 hvcurveto
            return
          </CharString>
          <CharString index="697">
            -14 hvcurveto
            -201 vlineto
            -14 7 -5 13 vhcurveto
            return
          </CharString>
          <CharString index="698">
            5 11 hvcurveto
            97 vlineto
            12 -6 4 -10 vhcurveto
            return
          </CharString>
          <CharString index="699">
            209 callsubr
            13 hvcurveto
            43 vlineto
            return
          </CharString>
          <CharString index="700">
            -5 576 callgsubr
            5 -7 return
          </CharString>
          <CharString index="701">
            vlineto
            13 -7 9 560 callgsubr
            return
          </CharString>
          <CharString index="702">
            68 callsubr
            -100 60 -59 return
          </CharString>
          <CharString index="703">
            -6 -11 hvcurveto
            -48 vlineto
            -12 6 -7 14 vhcurveto
            return
          </CharString>
          <CharString index="704">
            hvcurveto
            2 2 3 340 callgsubr
            return
          </CharString>
          <CharString index="705">
            vlineto
            13 -7 9 -18 vhcurveto
            -60 hlineto
            -37 -18 return
          </CharString>
          <CharString index="706">
            -32 52 25 18 7 37 19 vhcurveto
            endchar
          </CharString>
          <CharString index="707">
            59 -112 vhcurveto
            endchar
          </CharString>
          <CharString index="708">
            222 85 rmoveto
            return
          </CharString>
          <CharString index="709">
            -4 6 -15 vhcurveto
            return
          </CharString>
          <CharString index="710">
            vlineto
            99 -58 56 return
          </CharString>
          <CharString index="711">
            vlineto
            12 -4 4 return
          </CharString>
        <CharString name=".notdef">
          251 166 hmoveto
          422 701 -422 hlineto
          73 -68 rmoveto
          277 -565 -277 hlineto
          endchar
        </CharString>
        <CharString name="A">
          45 -69 callgsubr
          endchar
        </CharString>
        <CharString name="AE">
          275 368 548 rmoveto
          4 -314 -160 hlineto
          -126 -234 rmoveto
          11 6 4 13 5 hvcurveto
          66 130 rlineto
          198 -130 hlineto
          156 callsubr
          320 514 callsubr
          -228 hlineto
          -8 -3 3 8 hvcurveto
          178 226 callsubr
          193 452 callsubr
          51 177 callsubr
          -3 3 7 hvcurveto
          169 226 callsubr
          228 hlineto
          12 477 callgsubr
          51 260 callsubr
          -376 hlineto
          -14 -7 -4 -13 -6 hvcurveto
          -301 -608 rlineto
          -11 -5 4 -7 12 hhcurveto
          endchar
        </CharString>
        <CharString name="Aacute">
          44 -69 callgsubr
          282 836 rmoveto
          -10 508 callgsubr
          49 hlineto
          8 8 4 8 6 431 callsubr
        </CharString>
        <CharString name="Abreve">
          44 -69 callgsubr
          128 824 rmoveto
          -11 vlineto
          239 callgsubr
          -38 hlineto
          -7 -5 -3 -9 hvcurveto
          endchar
        </CharString>
        <CharString name="Acircumflex">
          44 -69 callgsubr
          283 826 rmoveto
          7 -5 -5 3 -11 hhcurveto
          -48 306 callgsubr
          5 2 8 2 hvcurveto
          41 78 40 -78 rlineto
          -8 4 4 -2 8 hhcurveto
          46 hlineto
          9 2 6 6 -4 hvcurveto
          endchar
        </CharString>
        <CharString name="Adieresis">
          44 -69 callgsubr
          282 724 83 callgsubr
        </CharString>
        <CharString name="Agrave">
          44 -69 callgsubr
          215 820 rmoveto
          12 -6 -8 558 callsubr
          -5 -7 -10 8 hvcurveto
          84 603 callgsubr
          8 -4 9 hhcurveto
          48 hlineto
          11 3 5 12 -6 hvcurveto
          endchar
        </CharString>
        <CharString name="Amacron">
          44 -69 callgsubr
          337 740 203 callgsubr
        </CharString>
        <CharString name="Aogonek">
          44 184 227 rmoveto
          88 320 rlineto
          4 hlineto
          89 -320 rlineto
          -17 399 rmoveto
          13 -3 -8 4 -13 hhcurveto
          -100 hlineto
          -13 -7 -4 -13 -4 hvcurveto
          -174 -609 rlineto
          -12 -3 2 -5 11 hhcurveto
          72 hlineto
          11 4 4 13 3 hvcurveto
          38 130 rlineto
          220 hlineto
          37 -128 -57 -86 rlineto
          -24 -16 9 -25 36 hhcurveto
          35 53 12 25 14 -5 3 -19 hvcurveto
          -40 hlineto
          42 62 rlineto
          52 hlineto
          12 2 5 12 -3 hvcurveto
          endchar
        </CharString>
        <CharString name="Aring">
          44 -69 callgsubr
          229 740 rmoveto
          -22 -10 10 24 hvcurveto
          24 vlineto
          25 10 10 23 vhcurveto
          14 hlineto
          23 8 -10 -25 hvcurveto
          -24 vlineto
          -24 -8 -10 -24 vhcurveto
          15 471 callsubr
          -39 -21 -22 -38 hvcurveto
          -51 vlineto
          -40 21 -22 39 vhcurveto
          endchar
        </CharString>
        <CharString name="Atilde">
          44 -69 callgsubr
          252 746 rmoveto
          26 16 3 7 12 hhcurveto
          17 4 -8 -35 hvcurveto
          -19 vlineto
          -9 3 -3 7 vhcurveto
          30 hlineto
          7 2 3 9 hvcurveto
          38 vlineto
          45 -14 32 -53 -25 -16 -7 -31 -18 vhcurveto
          -32 -18 -5 -7 -11 hhcurveto
          -15 -5 9 34 hvcurveto
          20 vlineto
          8 -3 2 -7 vhcurveto
          -30 hlineto
          -7 -3 -2 -8 hvcurveto
          -39 vlineto
          -45 15 -32 53 24 17 7 37 20 vhcurveto
          endchar
        </CharString>
        <CharString name="B">
          49 73 17 rmoveto
          156 callsubr
          246 hlineto
          97 58 55 98 hvcurveto
          64 vlineto
          69 -42 37 -48 6 vhcurveto
          49 15 33 36 61 vvcurveto
          49 vlineto
          98 -58 55 -98 vhcurveto
          -237 528 callgsubr
          -257 rmoveto
          -7 567 callgsubr
          171 189 callgsubr
          132 hlineto
          49 25 -22 -50 hvcurveto
          -46 vlineto
          -50 -26 -23 -50 vhcurveto
          -130 -286 rmoveto
          -7 567 callgsubr
          186 189 callgsubr
          136 hlineto
          54 25 -23 -49 hvcurveto
          -62 vlineto
          -50 -25 -22 -50 vhcurveto
          endchar
        </CharString>
        <CharString name="C">
          37 334 hmoveto
          41 callsubr
        </CharString>
        <CharString name="CR">
          -265 endchar
        </CharString>
        <CharString name="Cacute">
          37 308 175 callsubr
          6 hvcurveto
          84 100 rlineto
          10 8 -5 7 -11 hhcurveto
          -52 -836 rmoveto
          41 callsubr
        </CharString>
        <CharString name="Ccaron">
          37 302 707 rmoveto
          11 510 callsubr
          -47 hlineto
          -7 -5 -2 -8 -4 hvcurveto
          -40 -78 -40 78 rlineto
          8 -3 412 callgsubr
          80 -707 rmoveto
          41 callsubr
        </CharString>
        <CharString name="Ccedilla">
          37 471 422 rmoveto
          12 6 6 12 hvcurveto
          48 603 callsubr
          -97 vhcurveto
          -116 hlineto
          -98 -57 577 callgsubr
          57 -57 98 vhcurveto
          44 hlineto
          -40 -46 rlineto
          -20 -18 11 -29 24 hhcurveto
          21 hlineto
          37 11 -6 -22 hvcurveto
          -3 vlineto
          -19 -11 -6 -37 vhcurveto
          -29 hlineto
          -12 -3 -4 -13 hvcurveto
          -16 vlineto
          -11 3 -5 12 vhcurveto
          38 hlineto
          54 36 20 47 hvcurveto
          16 vlineto
          51 -29 18 -47 vhcurveto
          4 vlineto
          42 44 rlineto
          9 556 callgsubr
          48 373 callsubr
          -63 hlineto
          -11 -6 -6 -12 hvcurveto
          -44 298 callgsubr
          -87 hlineto
          -49 -23 573 callgsubr
          23 25 49 vhcurveto
          87 hlineto
          50 22 -25 -49 561 callsubr
          11 vhcurveto
          endchar
        </CharString>
        <CharString name="D">
          172 callgsubr
          endchar
        </CharString>
        <CharString name="Dcaron">
          172 callgsubr
          -71 622 rmoveto
          48 338 callsubr
          -1 6 -9 hhcurveto
          -46 hlineto
          -8 -4 -2 -8 -3 hvcurveto
          -41 593 callgsubr
          -45 hlineto
          -9 -3 -6 -6 4 hvcurveto
          64 588 callsubr
          5 -3 11 hhcurveto
          endchar
        </CharString>
        <CharString name="Dcroat">
          43 346 383 callsubr
          -247 379 callgsubr
          -13 hvcurveto
          -217 vlineto
          -8 481 callgsubr
          -4 14 vhcurveto
          32 hlineto
          8 2 -3 -7 hvcurveto
          -298 237 callsubr
          92 85 rmoveto
          462 callsubr
          219 189 callgsubr
          103 hlineto
          13 466 callsubr
          40 vlineto
          12 -5 5 -12 vhcurveto
          -103 hlineto
          462 callsubr
          139 390 callsubr
        </CharString>
        <CharString name="E">
          -23 -72 callgsubr
          endchar
        </CharString>
        <CharString name="Eacute">
          -23 -72 callgsubr
          193 836 rmoveto
          -10 -9 -4 -12 -6 hvcurveto
          -51 -96 rlineto
          -12 -6 3 361 callsubr
          7 -4 605 callgsubr
        </CharString>
        <CharString name="Ecaron">
          -23 -72 callgsubr
          140 707 186 callsubr
          -3 -4 428 callgsubr
          endchar
        </CharString>
        <CharString name="Ecircumflex">
          -23 -72 callgsubr
          204 826 101 callgsubr
        </CharString>
        <CharString name="Edieresis">
          -23 -72 callgsubr
          203 724 190 callsubr
        </CharString>
        <CharString name="Edotaccent">
          -16 -72 callgsubr
          111 727 rmoveto
          -12 5 -5 11 vhcurveto
          66 hlineto
          11 477 callgsubr
          96 vlineto
          12 -6 4 -10 vhcurveto
          -66 549 callsubr
        </CharString>
        <CharString name="Egrave">
          -23 -72 callgsubr
          142 820 116 callgsubr
        </CharString>
        <CharString name="Emacron">
          -23 -72 callgsubr
          259 740 rmoveto
          581 callgsubr
          35 168 callsubr
          -200 hlineto
          -12 334 callgsubr
          -35 vlineto
          -12 4 -5 12 vhcurveto
          endchar
        </CharString>
        <CharString name="Eogonek">
          -23 410 558 rmoveto
          12 4 5 12 hvcurveto
          51 456 callsubr
          -12 vhcurveto
          -320 86 callsubr
          225 hlineto
          -45 -67 rlineto
          -24 -17 9 -25 36 hhcurveto
          35 53 12 25 14 -5 3 -18 hvcurveto
          -41 hlineto
          43 62 rlineto
          45 hlineto
          12 358 callsubr
          51 vlineto
          12 -4 5 -12 vhcurveto
          -228 hlineto
          -8 -4 3 8 hvcurveto
          178 200 callgsubr
          193 452 callsubr
          51 177 callsubr
          -4 3 7 hvcurveto
          169 200 callgsubr
          endchar
        </CharString>
        <CharString name="Eth">
          43 346 383 callsubr
          -247 379 callgsubr
          -13 hvcurveto
          -256 vlineto
          -7 481 callgsubr
          -5 14 vhcurveto
          32 hlineto
          8 2 -3 -7 hvcurveto
          -259 237 callsubr
          92 85 rmoveto
          462 callsubr
          180 189 callgsubr
          103 hlineto
          581 callgsubr
          40 vlineto
          12 -5 5 -12 vhcurveto
          -103 hlineto
          -7 567 callgsubr
          178 390 callsubr
        </CharString>
        <CharString name="Euro">
          35 318 hmoveto
          97 59 55 98 hvcurveto
          23 87 callsubr
          -21 vlineto
          -50 -23 -22 -50 vhcurveto
          -35 hlineto
          -51 -24 22 50 hvcurveto
          66 117 vlineto
          15 4 7 12 hvcurveto
          31 422 callgsubr
          -117 58 117 hlineto
          15 4 6 13 hvcurveto
          30 422 callgsubr
          -117 72 hlineto
          50 24 22 51 vhcurveto
          35 hlineto
          50 23 -22 -50 hvcurveto
          -21 vlineto
          59 callsubr
          23 vlineto
          98 -59 55 -97 vhcurveto
          -65 hlineto
          -97 -59 -55 -98 hvcurveto
          -74 -50 vlineto
          536 callsubr
          -30 vlineto
          -13 4 -6 15 vhcurveto
          50 -58 -50 hlineto
          536 callsubr
          -31 vlineto
          -12 4 -7 15 vhcurveto
          50 -68 hlineto
          -98 59 -55 97 vhcurveto
          endchar
        </CharString>
        <CharString name="F">
          -49 153 236 callgsubr
          236 200 callgsubr
          193 hlineto
          13 5 6 12 hvcurveto
          50 177 callsubr
          -4 3 8 hvcurveto
          189 200 callgsubr
          222 hlineto
          581 callgsubr
          51 168 callsubr
          -314 86 callsubr
          endchar
        </CharString>
        <CharString name="G">
          13 callsubr
          endchar
        </CharString>
        <CharString name="Gbreve">
          13 callsubr
          -56 824 rmoveto
          -11 vlineto
          -71 36 -35 61 vhcurveto
          25 hlineto
          62 35 208 callgsubr
          -12 -16 -33 vhcurveto
          -7 hlineto
          -31 -12 15 41 hvcurveto
          10 vlineto
          9 -5 547 callsubr
        </CharString>
        <CharString name="H">
          71 153 236 callgsubr
          253 200 callgsubr
          211 hlineto
          7 3 -3 -7 hvcurveto
          -253 vlineto
          59 callsubr
          609 87 callsubr
          -250 vlineto
          -7 -3 -3 -7 vhcurveto
          -211 496 callgsubr
          250 118 callgsubr
          endchar
        </CharString>
        <CharString name="I">
          -250 175 626 51 callsubr
          endchar
        </CharString>
        <CharString name="Iacute">
          -250 175 626 51 callsubr
          -4 819 rmoveto
          -11 -8 -4 -12 -7 hvcurveto
          -51 595 callgsubr
          8 9 4 8 6 hvcurveto
          84 600 callgsubr
        </CharString>
        <CharString name="Icircumflex">
          -251 175 626 51 callsubr
          -4 809 rmoveto
          7 -5 -6 3 -10 hhcurveto
          -48 hlineto
          -11 -6 -3 -7 -5 hvcurveto
          -63 -107 rlineto
          -6 -4 3 -6 9 hhcurveto
          44 hlineto
          9 4 2 8 3 hvcurveto
          40 78 41 -78 rlineto
          -8 4 4 -2 7 hhcurveto
          47 hlineto
          9 1 6 6 -4 hvcurveto
          endchar
        </CharString>
        <CharString name="Idieresis">
          -251 175 626 51 callsubr
          -5 707 191 callgsubr
        </CharString>
        <CharString name="Idotaccent">
          -250 78 714 321 callgsubr
          65 hlineto
          11 503 callgsubr
          91 552 callsubr
          -65 320 callgsubr
          97 -178 51 callsubr
          endchar
        </CharString>
        <CharString name="Igrave">
          -250 175 626 51 callsubr
          -68 803 116 callgsubr
        </CharString>
        <CharString name="Imacron">
          -251 175 626 51 callsubr
          51 723 203 callgsubr
        </CharString>
        <CharString name="Iogonek">
          -250 158 hmoveto
          12 5 4 13 hvcurveto
          609 118 callgsubr
          6 hlineto
          -45 -67 rlineto
          -24 -16 8 -25 37 596 callgsubr
          -41 hlineto
          44 62 rlineto
          endchar
        </CharString>
        <CharString name="J">
          10 365 643 rmoveto
          -12 -6 -4 -13 hvcurveto
          -467 vlineto
          -49 -21 -25 -51 vhcurveto
          -71 hlineto
          -49 -23 25 49 hvcurveto
          86 vlineto
          12 -5 5 -12 vhcurveto
          -63 hlineto
          -12 -6 -5 -12 hvcurveto
          -90 vlineto
          -98 58 -57 98 vhcurveto
          100 556 callgsubr
          472 vlineto
          12 -6 4 -11 vhcurveto
          endchar
        </CharString>
        <CharString name="K">
          121 callsubr
          endchar
        </CharString>
        <CharString name="L">
          63 callgsubr
          endchar
        </CharString>
        <CharString name="Lacute">
          63 callgsubr
          77 175 callsubr
          5 432 callgsubr
        </CharString>
        <CharString name="Lcaron">
          63 callgsubr
          292 627 411 callgsubr
          6 4 5 3 vhcurveto
          43 98 rlineto
          10 24 8 18 29 vvcurveto
          endchar
        </CharString>
        <CharString name="Lslash">
          9 440 hmoveto
          12 4 454 callsubr
          -4 7 -12 vhcurveto
          -233 452 callgsubr
          276 vlineto
          89 50 rlineto
          11 7 6 7 12 vvcurveto
          52 vlineto
          10 -7 4 -10 -4 vhcurveto
          -89 -50 rlineto
          165 87 callsubr
          -222 vlineto
          -67 -37 rlineto
          -12 -7 -5 -8 -10 vvcurveto
          -51 vlineto
          -10 7 -5 10 5 vhcurveto
          67 38 rlineto
          -302 550 callgsubr
        </CharString>
        <CharString name="M">
          212 360 246 rmoveto
          -5 hlineto
          -137 386 rlineto
          7 -3 -4 4 -9 hhcurveto
          -112 hlineto
          -10 -7 -4 -13 hvcurveto
          -609 vlineto
          -14 7 -3 10 vhcurveto
          61 hlineto
          14 3 4 13 hvcurveto
          506 4 vlineto
          133 -367 rlineto
          -11 4 5 -5 12 hhcurveto
          64 hlineto
          12 6 6 10 4 hvcurveto
          130 366 rlineto
          4 -505 hlineto
          187 callgsubr
          62 hlineto
          11 6 4 13 hvcurveto
          609 367 callsubr
          -112 hlineto
          -10 -4 -4 -7 -1 hvcurveto
          endchar
        </CharString>
        <CharString name="N">
          80 152 hmoveto
          -18 callgsubr
          endchar
        </CharString>
        <CharString name="NULL">
          -503 endchar
        </CharString>
        <CharString name="Nacute">
          80 152 hmoveto
          -18 callgsubr
          246 836 rmoveto
          -11 508 callgsubr
          49 hlineto
          8 9 4 8 5 431 callsubr
        </CharString>
        <CharString name="Ncaron">
          80 274 707 rmoveto
          48 hlineto
          10 510 callsubr
          -47 hlineto
          -7 -5 -2 -8 -3 hvcurveto
          -41 -78 -40 78 rlineto
          8 -3 -4 2 -9 hhcurveto
          -45 hlineto
          -8 -3 223 callgsubr
          11 hhcurveto
          -122 -707 rmoveto
          -18 callgsubr
          endchar
        </CharString>
        <CharString name="Ntilde">
          80 152 hmoveto
          -18 callgsubr
          216 746 rmoveto
          26 16 3 7 12 hhcurveto
          16 571 callsubr
          29 hlineto
          7 3 3 9 hvcurveto
          38 vlineto
          45 -14 32 -53 -26 -15 -7 -31 -18 vhcurveto
          -32 -18 -5 -7 -11 hhcurveto
          -16 -4 9 34 hvcurveto
          20 vlineto
          8 -3 2 -8 vhcurveto
          -29 hlineto
          -7 -2 -2 -8 hvcurveto
          -39 vlineto
          -45 14 599 callsubr
        </CharString>
        <CharString name="O">
          -48 callgsubr
          endchar
        </CharString>
        <CharString name="OE">
          276 239 85 382 callgsubr
          118 hlineto
          8 500 callsubr
          -452 vlineto
          -8 -4 -3 -8 vhcurveto
          -289 70 rmoveto
          -98 58 -57 98 vhcurveto
          475 514 callsubr
          -223 hlineto
          -7 -3 3 8 hvcurveto
          178 426 callgsubr
          7 vhcurveto
          189 421 callsubr
          51 vlineto
          12 -4 5 -13 vhcurveto
          -189 hlineto
          332 callsubr
          169 426 callgsubr
          7 vhcurveto
          223 hlineto
          12 477 callgsubr
          51 260 callsubr
          -475 557 callgsubr
          endchar
        </CharString>
        <CharString name="Oacute">
          -48 callgsubr
          -7 751 580 callgsubr
          -5 hvcurveto
          -52 595 callgsubr
          9 405 callgsubr
          84 100 rlineto
          10 7 -4 605 callgsubr
        </CharString>
        <CharString name="Ocircumflex">
          -48 callgsubr
          5 741 212 callgsubr
        </CharString>
        <CharString name="Odieresis">
          -48 callgsubr
          1 639 75 callgsubr
          -180 -95 75 callgsubr
          endchar
        </CharString>
        <CharString name="Ograve">
          -48 callgsubr
          -62 735 116 callgsubr
        </CharString>
        <CharString name="Ohungarumlaut">
          -48 callgsubr
          74 751 rmoveto
          -11 -8 -3 -13 308 callgsubr
          31 hlineto
          9 7 4 8 7 hvcurveto
          74 100 rlineto
          12 8 -5 5 -11 hhcurveto
          -194 hmoveto
          -10 -8 -3 -13 -7 hvcurveto
          -51 354 callsubr
          32 hlineto
          9 7 4 8 6 hvcurveto
          75 100 rlineto
          12 7 -5 5 -11 hhcurveto
          endchar
        </CharString>
        <CharString name="Omacron">
          -48 callgsubr
          57 655 rmoveto
          581 callgsubr
          35 168 callsubr
          -200 hlineto
          -12 -5 -6 -11 hvcurveto
          -35 vlineto
          -12 5 -5 12 vhcurveto
          endchar
        </CharString>
        <CharString name="Oslash">
          69 405 159 rmoveto
          -49 -22 -25 -50 vhcurveto
          -94 hlineto
          -33 -20 11 21 -11 hvcurveto
          230 321 rlineto
          -238 46 rmoveto
          49 22 25 50 vhcurveto
          94 hlineto
          33 21 -11 -21 10 hvcurveto
          -230 -321 rlineto
          334 435 rmoveto
          -10 7 -8 -1 -8 -11 -19 -27 rcurveline
          23 -27 -36 12 -46 hhcurveto
          -122 hlineto
          -98 -57 556 callsubr
          -26 4 -23 8 -20 vhcurveto
          -32 -45 -7 -11 2 -8 9 -7 rlinecurve
          17 -13 10 -6 8 1 8 10 rlinecurve
          20 28 rlineto
          -23 26 37 -12 45 hhcurveto
          122 hlineto
          98 57 57 98 hvcurveto
          333 vlineto
          26 -4 23 -8 20 vhcurveto
          33 46 6 10 -1 8 -10 7 rlinecurve
          endchar
        </CharString>
        <CharString name="Otilde">
          -48 callgsubr
          -29 661 rmoveto
          26 16 3 7 13 hhcurveto
          15 571 callsubr
          30 hlineto
          7 2 3 9 hvcurveto
          38 vlineto
          45 -15 32 -52 -26 -15 -7 -31 -17 vhcurveto
          -32 -19 -5 -7 -11 hhcurveto
          -16 -4 9 34 hvcurveto
          20 vlineto
          8 -3 2 -7 vhcurveto
          -30 hlineto
          -7 -3 -2 -8 hvcurveto
          -39 vlineto
          -45 15 599 callsubr
        </CharString>
        <CharString name="P">
          25 181 315 rmoveto
          -7 567 callgsubr
          223 189 callgsubr
          133 hlineto
          50 21 -25 -49 hvcurveto
          -95 vlineto
          -50 -21 -24 -50 vhcurveto
          -161 -315 rmoveto
          122 callgsubr
          202 200 callgsubr
          146 556 callgsubr
          104 603 callsubr
          -97 vhcurveto
          -238 86 callsubr
          endchar
        </CharString>
        <CharString name="Q">
          61 426 -133 rmoveto
          11 8 8 13 -7 hvcurveto
          -67 115 rlineto
          78 10 46 55 87 vvcurveto
          333 vlineto
          99 -57 56 -98 vhcurveto
          -116 383 callgsubr
          46 hlineto
          68 -116 rlineto
          -12 7 7 -5 18 hhcurveto
          -131 218 382 callgsubr
          87 475 callsubr
        </CharString>
        <CharString name="R">
          39 181 -43 callgsubr
          endchar
        </CharString>
        <CharString name="Racute">
          39 181 -43 callgsubr
          205 175 callsubr
          5 432 callgsubr
        </CharString>
        <CharString name="Rcaron">
          39 181 -43 callgsubr
          145 707 rmoveto
          49 hlineto
          10 7 3 7 5 hvcurveto
          62 402 callsubr
          -46 165 callgsubr
        </CharString>
        <CharString name="S">
          45 61 156 -28 callsubr
        </CharString>
        <CharString name="Sacute">
          45 303 175 callsubr
          6 hvcurveto
          84 100 rlineto
          10 8 -5 7 -11 hhcurveto
          -320 -680 -28 callsubr
        </CharString>
        <CharString name="Scaron">
          45 293 707 rmoveto
          10 510 callsubr
          -46 hlineto
          -8 -5 -2 -8 -3 hvcurveto
          -40 593 callgsubr
          -46 hlineto
          -8 -3 223 callgsubr
          11 hhcurveto
          -184 -551 -28 callsubr
        </CharString>
        <CharString name="T">
          28 callgsubr
          endchar
        </CharString>
        <CharString name="Tcaron">
          28 callgsubr
          9 707 186 callsubr
          -3 -4 2 -8 hhcurveto
          -45 hlineto
          -9 -3 -6 -6 4 hvcurveto
          64 588 callsubr
          5 -3 11 hhcurveto
          endchar
        </CharString>
        <CharString name="Thorn">
          0 174 321 callsubr
          105 226 callsubr
          95 hlineto
          97 59 56 99 hvcurveto
          68 vlineto
          99 513 callgsubr
          -95 452 callgsubr
          106 87 callsubr
          -609 237 callsubr
          91 218 rmoveto
          332 callsubr
          187 426 callgsubr
          7 vhcurveto
          81 hlineto
          51 21 -25 -49 hvcurveto
          -60 vlineto
          -50 -21 -23 -51 vhcurveto
          endchar
        </CharString>
        <CharString name="U">
          -49 callsubr
          endchar
        </CharString>
        <CharString name="Uacute">
          -49 callsubr
          -153 193 303 callgsubr
        </CharString>
        <CharString name="Ucircumflex">
          -49 callsubr
          -146 183 rmoveto
          7 -5 -6 3 -10 hhcurveto
          -49 306 callgsubr
          4 2 8 4 391 callgsubr
          8 hhcurveto
          45 hlineto
          9 2 6 6 -4 hvcurveto
          endchar
        </CharString>
        <CharString name="Udieresis">
          -49 callsubr
          -149 81 83 callgsubr
        </CharString>
        <CharString name="Ugrave">
          -49 callsubr
          -209 177 rmoveto
          12 -7 -8 558 callsubr
          -5 -7 -10 8 hvcurveto
          84 603 callgsubr
          9 -4 8 hhcurveto
          48 hlineto
          11 3 5 12 -6 hvcurveto
          endchar
        </CharString>
        <CharString name="Uhungarumlaut">
          -49 callsubr
          -80 193 rmoveto
          -11 359 callgsubr
          -6 5 -10 597 callgsubr
          -51 421 callgsubr
          10 hhcurveto
          32 hlineto
          9 7 4 8 6 548 callgsubr
        </CharString>
        <CharString name="Umacron">
          -49 callsubr
          -94 97 203 callgsubr
        </CharString>
        <CharString name="Uogonek">
          54 409 643 rmoveto
          -14 callsubr
          -467 vlineto
          -49 -23 -25 -50 vhcurveto
          -82 hlineto
          -49 -23 25 49 hvcurveto
          467 vlineto
          -58 callsubr
          -471 vlineto
          -98 57 -57 98 vhcurveto
          47 hlineto
          -44 -67 rlineto
          -24 -17 9 -25 36 596 callgsubr
          -40 hlineto
          43 62 rlineto
          13 hlineto
          97 59 57 98 hvcurveto
          472 vlineto
          12 -6 4 -12 vhcurveto
          endchar
        </CharString>
        <CharString name="Uring">
          -49 callsubr
          -202 97 rmoveto
          -22 -9 10 24 hvcurveto
          24 vlineto
          25 10 10 22 vhcurveto
          14 hlineto
          23 9 -10 -25 hvcurveto
          -24 vlineto
          -24 -9 -10 -23 vhcurveto
          14 471 callsubr
          -38 -22 -22 -38 hvcurveto
          -51 vlineto
          -40 22 -22 38 vhcurveto
          endchar
        </CharString>
        <CharString name="V">
          10 307 hmoveto
          10 6 4 13 3 hvcurveto
          167 607 rlineto
          12 3 -6 7 -13 hhcurveto
          -70 hlineto
          -12 -5 -4 -13 -3 hvcurveto
          -128 -522 rlineto
          -4 hlineto
          -129 522 rlineto
          13 -2 -5 4 -12 hhcurveto
          -71 hlineto
          -13 -6 -7 -12 4 hvcurveto
          166 -607 rlineto
          -13 3 7 -4 11 hhcurveto
          endchar
        </CharString>
        <CharString name="W">
          299 267 hmoveto
          10 7 5 12 2 hvcurveto
          113 506 rlineto
          4 hlineto
          113 -506 rlineto
          -11 2 6 -6 12 hhcurveto
          106 hlineto
          12 6 5 12 2 hvcurveto
          119 608 rlineto
          12 2 -6 6 -13 hhcurveto
          -77 hlineto
          -11 -8 -5 -13 -1 hvcurveto
          -81 -523 rlineto
          -6 hlineto
          -119 526 rlineto
          12 -2 -8 3 -9 hhcurveto
          -84 hlineto
          -8 -8 -3 -12 -2 hvcurveto
          -118 -526 rlineto
          -6 hlineto
          -81 524 rlineto
          14 -1 -7 3 -12 hhcurveto
          -77 hlineto
          -12 -6 -6 -11 1 hvcurveto
          119 -609 rlineto
          -13 2 7 -4 12 hhcurveto
          endchar
        </CharString>
        <CharString name="X">
          23 388 16 rmoveto
          -12 5 8 -4 10 hhcurveto
          75 hlineto
          12 5 8 11 -6 hvcurveto
          -165 314 160 291 rlineto
          9 4 -5 10 -11 hhcurveto
          -74 hlineto
          -11 -8 -4 -13 -7 hvcurveto
          -115 -232 rlineto
          -4 hlineto
          -115 232 rlineto
          13 -6 -10 4 -12 hhcurveto
          -71 hlineto
          -11 -5 -9 -9 5 hvcurveto
          158 -292 -165 -315 rlineto
          -10 -5 5 -8 11 hhcurveto
          74 hlineto
          11 8 4 12 5 hvcurveto
          123 244 rlineto
          4 hlineto
          endchar
        </CharString>
        <CharString name="Y">
          61 callgsubr
          endchar
        </CharString>
        <CharString name="Yacute">
          61 callgsubr
          71 836 rmoveto
          -11 -8 -4 -12 -6 hvcurveto
          -51 -96 rlineto
          -12 -7 4 361 callsubr
          7 -5 7 -10 hhcurveto
          endchar
        </CharString>
        <CharString name="Ydieresis">
          61 callgsubr
          76 724 83 callgsubr
        </CharString>
        <CharString name="Z">
          7 callgsubr
          endchar
        </CharString>
        <CharString name="Zacute">
          7 callgsubr
          265 772 303 callgsubr
        </CharString>
        <CharString name="Zcaron">
          7 callgsubr
          201 643 295 callgsubr
          -1 327 callsubr
          -2 -6 2 -7 hhcurveto
          -45 hlineto
          -10 -1 -6 -6 4 hvcurveto
          62 588 callsubr
          7 -3 9 hhcurveto
          endchar
        </CharString>
        <CharString name="Zdotaccent">
          7 callgsubr
          181 663 rmoveto
          -12 5 -5 11 vhcurveto
          65 hlineto
          12 477 callgsubr
          96 vlineto
          12 -6 4 -11 vhcurveto
          -65 549 callsubr
        </CharString>
        <CharString name="a">
          9 -53 callsubr
          endchar
        </CharString>
        <CharString name="aacute">
          9 -53 callsubr
          101 703 175 callgsubr
        </CharString>
        <CharString name="abreve">
          9 164 680 rmoveto
          -71 36 -35 61 vhcurveto
          26 hlineto
          61 35 338 callgsubr
          -7 -5 -4 -8 hvcurveto
          -10 vlineto
          -40 -13 -16 -32 vhcurveto
          -6 hlineto
          -32 -12 15 41 hvcurveto
          10 vlineto
          9 -5 3 -7 vhcurveto
          -38 hlineto
          -8 -5 -3 -9 hvcurveto
          83 -691 5 callgsubr
          -224 -39 callgsubr
          144 530 callgsubr
          -48 hlineto
          87 callgsubr
          119 467 callgsubr
          -7 hvcurveto
          endchar
        </CharString>
        <CharString name="acircumflex">
          9 -53 callsubr
          104 693 101 callgsubr
        </CharString>
        <CharString name="acute">
          -216 139 703 580 callgsubr
          308 callgsubr
          47 hlineto
          10 7 4 8 6 432 callgsubr
        </CharString>
        <CharString name="adieresis">
          9 -53 callsubr
          108 591 75 callgsubr
          -180 -95 75 callgsubr
          endchar
        </CharString>
        <CharString name="ae">
          267 343 164 rmoveto
          -57 -26 -27 -56 vhcurveto
          -41 hlineto
          -55 -23 24 52 hvcurveto
          14 vlineto
          50 22 24 56 vhcurveto
          112 454 callgsubr
          292 44 rmoveto
          -8 -4 -3 -7 vhcurveto
          -173 hlineto
          462 callsubr
          75 vlineto
          50 26 22 50 vhcurveto
          46 hlineto
          50 23 -25 -49 hvcurveto
          -195 -162 rmoveto
          6 4 4 8 vhcurveto
          251 hlineto
          12 6 5 13 hvcurveto
          138 603 callsubr
          -97 vhcurveto
          -53 hlineto
          -46 -50 -12 -47 -25 hvcurveto
          46 -24 -54 13 -46 hhcurveto
          -157 184 callsubr
          -51 562 callgsubr
          160 hlineto
          47 25 -22 -51 hvcurveto
          -29 vlineto
          -5 -2 -3 -6 vhcurveto
          -130 hlineto
          -97 -58 -50 -99 hvcurveto
          -16 vlineto
          -96 60 -54 95 vhcurveto
          34 hlineto
          58 53 15 46 25 hvcurveto
          -43 26 38 -18 59 hhcurveto
          205 373 callgsubr
          52 342 callgsubr
          -190 hlineto
          -50 -23 25 49 hvcurveto
          endchar
        </CharString>
        <CharString name="agrave">
          9 -53 callsubr
          58 687 rmoveto
          12 -6 -8 4 -12 hhcurveto
          -78 hlineto
          -11 -5 -7 -10 8 hvcurveto
          84 603 callgsubr
          9 -4 8 hhcurveto
          48 hlineto
          11 4 5 12 -6 hvcurveto
          endchar
        </CharString>
        <CharString name="amacron">
          9 -53 callsubr
          172 323 callsubr
        </CharString>
        <CharString name="ampersand">
          107 446 12 rmoveto
          -9 7 11 -3 11 hhcurveto
          80 hlineto
          9 1 8 6 -5 hvcurveto
          -179 212 rlineto
          157 hlineto
          581 callgsubr
          51 vlineto
          11 -5 7 -12 vhcurveto
          -229 hlineto
          -53 61 rlineto
          -26 29 -18 30 35 vvcurveto
          21 vlineto
          50 23 22 47 vhcurveto
          12 hlineto
          44 23 -22 -50 hvcurveto
          -37 vlineto
          -12 5 -6 551 callsubr
          6 12 hvcurveto
          39 vlineto
          98 -58 55 -97 vhcurveto
          -30 hlineto
          -97 -64 -55 -98 hvcurveto
          -21 vlineto
          -47 14 -35 27 -35 vhcurveto
          -71 -6 -31 -64 -60 vvcurveto
          -69 vlineto
          -98 58 -55 97 vhcurveto
          69 hlineto
          67 39 22 48 16 hvcurveto
          -177 16 rmoveto
          -51 -24 23 50 hvcurveto
          57 vlineto
          52 18 24 40 2 vhcurveto
          135 -157 rlineto
          -35 -5 -21 -16 -37 hhcurveto
          endchar
        </CharString>
        <CharString name="aogonek">
          9 222 85 rmoveto
          87 callgsubr
          119 467 callgsubr
          -7 hvcurveto
          -245 341 callsubr
          -62 425 rmoveto
          -98 -57 -56 -99 hvcurveto
          -200 vlineto
          -98 57 -57 98 vhcurveto
          39 hlineto
          147 callgsubr
          -35 hlineto
          -46 -75 rlineto
          -22 -15 0 -37 33 hhcurveto
          31 51 14 24 2 hvcurveto
          3 11 -6 5 -16 -1 rrcurveto
          -1 -4 -29 -2 -9 hhcurveto
          -3 29 45 21 13 hvcurveto
          46 420 callgsubr
          476 vlineto
          13 -6 4 -12 vhcurveto
          endchar
        </CharString>
        <CharString name="apostrophemod">
          -320 136 627 164 callsubr
        </CharString>
        <CharString name="approxequal">
          46 174 388 517 callgsubr
          7 360 callsubr
          -7 -7 -7 -16 vvcurveto
          -44 vlineto
          -8 5 -4 575 callgsubr
          -177 vmoveto
          60 72 -31 67 hhcurveto
          32 29 7 8 21 hvcurveto
          17 7 7 8 15 vvcurveto
          44 vlineto
          8 -5 4 -7 vhcurveto
          -15 -30 -27 -47 -70 -64 32 -65 hhcurveto
          -32 -29 -7 -8 -21 hvcurveto
          -17 -8 -7 -7 -16 vvcurveto
          -44 vlineto
          -7 5 -5 575 callgsubr
          endchar
        </CharString>
        <CharString name="aring">
          9 184 527 callgsubr
          45 hlineto
          36 22 17 38 hvcurveto
          60 vlineto
          36 -22 16 -36 vhcurveto
          -45 hlineto
          -37 -20 -16 -36 hvcurveto
          38 -15 rmoveto
          27 9 6 25 vhcurveto
          16 hlineto
          24 519 callgsubr
          -25 -9 7 26 hvcurveto
          25 -624 5 callgsubr
          -224 -39 callgsubr
          144 530 callgsubr
          -48 hlineto
          87 callgsubr
          119 467 callgsubr
          -7 hvcurveto
          endchar
        </CharString>
        <CharString name="asciicircum">
          -9 350 380 rmoveto
          -12 6 5 -5 12 hhcurveto
          57 hlineto
          12 7 6 12 -7 hvcurveto
          -124 237 rlineto
          19 -10 -7 6 -20 hhcurveto
          -69 hlineto
          -20 -7 -6 -19 -10 hvcurveto
          -124 -237 rlineto
          -12 -7 7 -6 12 hhcurveto
          57 hlineto
          12 5 5 12 6 hvcurveto
          103 201 rlineto
          endchar
        </CharString>
        <CharString name="asciitilde">
          46 174 300 517 callgsubr
          8 360 callsubr
          -8 -7 -7 -16 vvcurveto
          -43 vlineto
          -8 5 -5 575 callgsubr
          endchar
        </CharString>
        <CharString name="asterisk">
          -102 235 627 rmoveto
          581 callsubr
          -39 379 callgsubr
          -12 hvcurveto
          -11 vlineto
          -63 36 -55 2 -6 vhcurveto
          3 6 31 55 63 vvcurveto
          -141 -213 rmoveto
          -8 -10 3 -8 9 -5 31 -23 rcurveline
          9 -6 8 0 6 8 7 10 rcurveline
          37 51 3 66 2 6 -6 -3 -58 -26 -37 -51 rrcurveto
          -16 153 rmoveto
          -12 5 -6 -5 -3 -9 -12 -38 rcurveline
          -4 -10 3 -7 10 -4 12 -4 rcurveline
          -19 59 64 18 6 hhcurveto
          -4 4 -43 47 -61 20 rrcurveto
          247 -62 rmoveto
          12 3 2 8 -3 10 -12 37 rcurveline
          -4 11 -5 3 -11 -3 -12 -4 rcurveline
          -61 -18 -40 -52 -5 -4 7 -1 62 -13 59 19 rrcurveto
          -76 -134 rmoveto
          7 -10 7 1 9 5 32 23 rcurveline
          9 6 1 8 -7 8 -6 10 rcurveline
          -37 51 -62 23 -5 4 1 -6 5 -65 39 -50 rrcurveto
          endchar
        </CharString>
        <CharString name="at">
          246 452 242 rmoveto
          -51 -24 -33 -58 vhcurveto
          -2 hlineto
          -50 -22 24 49 hvcurveto
          80 vlineto
          50 22 24 50 vhcurveto
          73 hlineto
          8 3 -3 -8 hvcurveto
          48 -432 rmoveto
          386 callgsubr
          25 168 callsubr
          -181 hlineto
          -110 -83 71 121 hvcurveto
          159 vlineto
          121 77 71 110 vhcurveto
          190 hlineto
          71 54 -39 -75 hvcurveto
          -207 vlineto
          -54 -27 -26 -51 vhcurveto
          -1 hlineto
          -8 -9 3 8 hvcurveto
          289 273 callsubr
          -162 hlineto
          -85 588 callgsubr
          -72 vlineto
          -98 58 -51 78 38 45 12 42 19 vhcurveto
          4 -11 hlineto
          -30 27 -14 28 vhcurveto
          47 hlineto
          78 56 54 79 hvcurveto
          219 vlineto
          98 -73 70 -106 vhcurveto
          -201 hlineto
          -134 -107 -102 -144 hvcurveto
          -173 vlineto
          -150 114 -92 139 vhcurveto
          endchar
        </CharString>
        <CharString name="atilde">
          10 -53 callsubr
          -50 652 rmoveto
          -45 14 -32 53 24 18 6 37 20 vhcurveto
          27 15 3 6 12 hhcurveto
          16 5 -8 -35 hvcurveto
          -18 vlineto
          -10 3 -2 7 vhcurveto
          30 hlineto
          7 2 2 10 hvcurveto
          38 vlineto
          45 -14 32 -53 -25 -15 -8 -30 -19 vhcurveto
          -32 -18 -5 -7 -10 hhcurveto
          -16 -6 9 34 hvcurveto
          19 vlineto
          9 -2 2 -7 vhcurveto
          -29 hlineto
          -8 -2 -2 -9 hvcurveto
          endchar
        </CharString>
        <CharString name="b">
          15 63 17 rmoveto
          156 callsubr
          229 hlineto
          98 563 callgsubr
          205 vlineto
          98 -58 56 -98 vhcurveto
          -44 hlineto
          -45 -40 -19 -35 -16 hvcurveto
          -4 226 hlineto
          -58 callsubr
          108 -601 rmoveto
          462 callsubr
          249 vlineto
          50 24 34 58 vhcurveto
          53 hlineto
          50 22 -24 -50 hvcurveto
          -196 298 callgsubr
          endchar
        </CharString>
        <CharString name="backslash">
          -99 268 18 rmoveto
          -14 5 6 -4 12 hhcurveto
          57 hlineto
          12 7 5 13 -5 hvcurveto
          -45 116 -135 376 -45 115 rrcurveto
          12 -5 -5 6 -13 hhcurveto
          -59 hlineto
          -12 -5 -6 -13 5 hvcurveto
          endchar
        </CharString>
        <CharString name="bar">
          -281 146 626 rmoveto
          13 -7 4 -11 vhcurveto
          -34 86 callsubr
          34 hlineto
          11 7 4 13 hvcurveto
          endchar
        </CharString>
        <CharString name="braceleft">
          -195 231 643 rmoveto
          -93 -43 -56 -99 hvcurveto
          -113 vlineto
          -46 -18 -16 -31 -14 -4 -6 -11 vhcurveto
          -51 vlineto
          -12 4 -6 14 31 18 -15 -46 vhcurveto
          -113 vlineto
          -99 43 -56 93 vhcurveto
          6 421 callsubr
          37 168 callsubr
          -3 hlineto
          -46 -14 24 50 hvcurveto
          130 vlineto
          52 -18 33 -41 12 vhcurveto
          43 14 16 32 52 vvcurveto
          130 vlineto
          50 14 24 46 vhcurveto
          3 421 callsubr
          37 168 callsubr
          endchar
        </CharString>
        <CharString name="braceright">
          -195 188 488 rmoveto
          99 -44 56 -92 vhcurveto
          -6 517 callsubr
          3 hlineto
          46 13 -24 -50 hvcurveto
          -130 vlineto
          -52 17 -32 42 -14 vhcurveto
          -41 -12 -18 -33 -52 vvcurveto
          -130 vlineto
          -50 -13 -24 -46 vhcurveto
          -3 517 callsubr
          6 hlineto
          92 44 56 99 hvcurveto
          113 vlineto
          46 17 15 32 13 4 6 12 vhcurveto
          51 456 callsubr
          -13 -32 -17 16 46 vhcurveto
          endchar
        </CharString>
        <CharString name="bracketleft">
          -194 228 -99 rmoveto
          546 callgsubr
          -65 hlineto
          -7 567 callgsubr
          585 vlineto
          8 4 3 7 vhcurveto
          65 hlineto
          546 callgsubr
          -140 hlineto
          -12 -4 -5 -12 hvcurveto
          -707 vlineto
          -13 4 -5 12 vhcurveto
          endchar
        </CharString>
        <CharString name="bracketright">
          -194 60 -82 rmoveto
          229 callgsubr
          140 hlineto
          12 4 5 13 hvcurveto
          707 vlineto
          12 -4 5 -12 vhcurveto
          -140 hlineto
          -13 485 callgsubr
          13 vhcurveto
          65 467 callgsubr
          -8 hvcurveto
          -585 vlineto
          -7 -4 -3 -7 vhcurveto
          -65 184 callsubr
          endchar
        </CharString>
        <CharString name="breve">
          -167 58 680 rmoveto
          -71 35 -35 62 vhcurveto
          25 hlineto
          62 35 208 callgsubr
          -13 -16 -32 vhcurveto
          -7 hlineto
          -31 -13 15 41 hvcurveto
          10 vlineto
          9 -4 547 callsubr
        </CharString>
        <CharString name="brokenbar">
          -284 145 253 rmoveto
          405 callsubr
          -35 hlineto
          -12 -6 -5 -13 hvcurveto
          -236 vlineto
          -13 6 -4 12 vhcurveto
          35 420 callgsubr
          609 vmoveto
          13 -6 4 -12 vhcurveto
          -35 hlineto
          -12 -6 -4 -13 hvcurveto
          -236 vlineto
          -13 6 -4 12 vhcurveto
          35 420 callgsubr
          endchar
        </CharString>
        <CharString name="bullet">
          -217 215 362 rmoveto
          33 -20 19 -33 vhcurveto
          -39 hlineto
          -33 -19 -19 -33 hvcurveto
          -84 vlineto
          -34 19 -18 33 vhcurveto
          39 hlineto
          33 20 18 34 hvcurveto
          endchar
        </CharString>
        <CharString name="c">
          73 callgsubr
          endchar
        </CharString>
        <CharString name="cacute">
          73 callgsubr
          -106 687 rmoveto
          -10 -9 -4 -12 -6 hvcurveto
          -51 -96 rlineto
          -12 -7 4 361 callsubr
          7 -4 605 callgsubr
        </CharString>
        <CharString name="caron">
          -165 145 574 rmoveto
          47 hlineto
          11 510 callsubr
          -47 hlineto
          -7 -5 -2 -8 -3 hvcurveto
          -41 -78 -40 78 rlineto
          8 -3 -5 2 -8 hhcurveto
          -45 hlineto
          -8 -3 223 callgsubr
          11 hhcurveto
          endchar
        </CharString>
        <CharString name="ccaron">
          73 callgsubr
          -159 558 295 callgsubr
          -1 6 -10 hhcurveto
          -45 165 callgsubr
        </CharString>
        <CharString name="ccedilla">
          -98 355 425 rmoveto
          13 5 4 12 hvcurveto
          52 513 callsubr
          -13 vhcurveto
          -147 -39 callgsubr
          21 hlineto
          -35 -41 rlineto
          -19 -17 10 -30 24 hhcurveto
          21 hlineto
          38 10 541 callgsubr
          -12 -4 550 callsubr
          3 435 callgsubr
          37 38 rlineto
          63 hlineto
          13 5 4 12 hvcurveto
          52 342 callgsubr
          -133 hlineto
          -49 -23 25 49 hvcurveto
          192 vlineto
          49 23 25 49 vhcurveto
          endchar
        </CharString>
        <CharString name="cedilla">
          -241 67 -41 rmoveto
          -19 -17 11 -30 24 hhcurveto
          20 hlineto
          37 11 541 callgsubr
          -13 -2 550 callsubr
          2 435 callgsubr
          57 58 rlineto
          -65 hlineto
          endchar
        </CharString>
        <CharString name="cent">
          -79 281 -93 rmoveto
          10 6 5 11 hvcurveto
          77 71 vlineto
          13 5 454 callsubr
          -5 5 -13 vhcurveto
          -146 hlineto
          -49 -23 25 49 hvcurveto
          192 vlineto
          49 23 25 49 535 callgsubr
          5 5 537 callgsubr
          -17 6 -12 vhcurveto
          -60 83 hlineto
          11 -6 5 -10 vhcurveto
          -48 hlineto
          -11 -6 -5 -12 hvcurveto
          -82 -17 vlineto
          -92 -54 -59 -96 hvcurveto
          -200 vlineto
          -96 54 -59 92 vhcurveto
          17 -76 hlineto
          -12 6 -5 11 vhcurveto
          endchar
        </CharString>
        <CharString name="circumflex">
          -165 214 693 rmoveto
          7 -5 -6 3 -11 hhcurveto
          -47 hlineto
          -11 -6 -3 -7 -5 hvcurveto
          -63 -107 rlineto
          -6 -4 3 -6 8 hhcurveto
          45 hlineto
          8 5 2 8 3 391 callgsubr
          7 hhcurveto
          47 hlineto
          8 2 6 6 -4 hvcurveto
          endchar
        </CharString>
        <CharString name="colon">
          -304 150 139 352 callsubr
          477 vmoveto
          12 -6 4 366 callsubr
          -12 hvcurveto
          -119 vlineto
          -12 531 callsubr
          5 12 hvcurveto
          endchar
        </CharString>
        <CharString name="comma">
          305 callsubr
          -228 437 callgsubr
          53 97 rlineto
          12 23 7 16 21 vvcurveto
          endchar
        </CharString>
        <CharString name="copyright">
          208 195 643 rmoveto
          -79 -49 -48 -80 hvcurveto
          -387 vlineto
          -80 49 -48 79 vhcurveto
          321 hlineto
          79 50 48 80 hvcurveto
          387 vlineto
          80 -50 48 -79 vhcurveto
          -303 -583 rmoveto
          -55 -26 24 55 hvcurveto
          365 vlineto
          55 26 24 55 vhcurveto
          285 hlineto
          54 27 -24 -55 hvcurveto
          -365 vlineto
          -55 -27 -24 -54 vhcurveto
          -6 343 rmoveto
          74 -41 35 -73 vhcurveto
          -43 hlineto
          -72 -42 -35 -74 hvcurveto
          -164 vlineto
          -73 42 -36 72 vhcurveto
          43 hlineto
          73 41 36 73 hvcurveto
          27 vlineto
          10 -4 3 -8 vhcurveto
          -41 hlineto
          -8 -4 -3 -10 hvcurveto
          -16 vlineto
          -54 -13 -9 -53 vhcurveto
          -10 hlineto
          -52 -12 9 54 hvcurveto
          143 vlineto
          52 12 9 52 vhcurveto
          10 hlineto
          53 13 -9 -52 hvcurveto
          -15 vlineto
          -9 4 -3 8 vhcurveto
          41 hlineto
          8 4 3 9 hvcurveto
          endchar
        </CharString>
        <CharString name="currency">
          13 239 203 rmoveto
          -11 -10 1 2 -8 hvcurveto
          49 47 -49 45 -42 -40 rlineto
          -1 6 0 6 6 vvcurveto
          59 vlineto
          50 22 23 50 vhcurveto
          38 hlineto
          10 9 -1 -2 8 hvcurveto
          -44 -40 40 -54 48 46 rlineto
          1 -7 1 -7 -8 vvcurveto
          -59 vlineto
          -50 -23 -23 -50 vhcurveto
          152 -11 rmoveto
          11 22 6 27 32 vvcurveto
          72 vlineto
          99 -58 49 -97 vhcurveto
          -65 hlineto
          -28 -25 -4 -8 -21 hvcurveto
          -61 58 469 callgsubr
          57 -54 rlineto
          -12 -21 -6 -27 -32 vvcurveto
          -72 vlineto
          -98 58 -57 98 vhcurveto
          65 hlineto
          29 26 5 10 21 hvcurveto
          60 -56 10 -10 8 1 9 9 rlinecurve
          32 33 10 9 1 7 -11 10 rlinecurve
          endchar
        </CharString>
        <CharString name="d">
          15 111 callgsubr
          endchar
        </CharString>
        <CharString name="dagger">
          -88 216 hmoveto
          11 6 4 13 2 hvcurveto
          6 43 14 192 71 vvcurveto
          29 -5 40 185 callsubr
          119 13 rlineto
          -8 -25 -4 -41 -27 vvcurveto
          -71 14 -192 6 -43 vhcurveto
          -13 1 6 -4 12 hhcurveto
          endchar
        </CharString>
        <CharString name="daggerdbl">
          -88 170 416 rmoveto
          -8 -26 -4 -43 -27 vvcurveto
          -28 4 -42 8 -24 vhcurveto
          -120 12 rlineto
          -13 2 -4 -8 -11 vvcurveto
          -54 vlineto
          -11 4 -6 13 2 vhcurveto
          121 13 -14 -148 rlineto
          -13 -2 8 -4 11 hhcurveto
          64 hlineto
          11 6 4 13 hvcurveto
          -15 149 125 -14 rlineto
          13 -2 5 6 11 vvcurveto
          54 vlineto
          11 -5 8 -13 -2 vhcurveto
          -123 -13 rlineto
          8 24 5 42 29 vvcurveto
          29 -5 43 185 callsubr
          endchar
        </CharString>
        <CharString name="danda">
          -203 126 19 213 callgsubr
          endchar
        </CharString>
        <CharString name="dcaron">
          93 111 callgsubr
          397 687 181 callgsubr
          -206 vlineto
          -12 7 -4 7 5 6 4 5 4 vhcurveto
          42 98 rlineto
          10 24 8 18 29 vvcurveto
          endchar
        </CharString>
        <CharString name="dcroat">
          51 357 530 callgsubr
          -53 hlineto
          -50 -22 25 49 hvcurveto
          134 vlineto
          49 22 24 50 vhcurveto
          53 hlineto
          58 24 -33 -51 hvcurveto
          -104 -282 rmoveto
          45 40 18 35 15 hvcurveto
          4 -36 hlineto
          59 callsubr
          515 189 callgsubr
          58 hlineto
          581 callgsubr
          40 260 callsubr
          -58 hlineto
          462 callsubr
          59 87 callsubr
          -59 vlineto
          -8 -3 -3 -8 vhcurveto
          -142 hlineto
          -12 334 callgsubr
          -40 vlineto
          -12 3 -5 13 vhcurveto
          142 454 callgsubr
          -134 -4 vlineto
          35 -15 -40 19 -45 hhcurveto
          -45 hlineto
          -98 -57 -57 -98 hvcurveto
          -142 vlineto
          -98 57 -57 98 vhcurveto
          endchar
        </CharString>
        <CharString name="degree">
          -155 180 551 rmoveto
          -13 hlineto
          -21 -5 5 20 hvcurveto
          61 vlineto
          21 5 5 21 vhcurveto
          13 hlineto
          21 5 -5 -21 hvcurveto
          -61 vlineto
          -20 -5 -5 -21 vhcurveto
          21 -41 rmoveto
          30 20 18 31 hvcurveto
          97 vlineto
          30 -20 17 -30 vhcurveto
          -55 hlineto
          -31 -18 -17 -30 hvcurveto
          -97 vlineto
          -31 18 -18 31 vhcurveto
          endchar
        </CharString>
        <CharString name="dieresis">
          -114 238 591 196 callsubr
          10 6 129 callsubr
          -180 -95 rmoveto
          -11 5 -6 12 vhcurveto
          59 hlineto
          11 576 callsubr
          -5 4 -11 vhcurveto
          -59 551 callgsubr
          endchar
        </CharString>
        <CharString name="divide">
          -22 207 433 rmoveto
          187 callgsubr
          34 420 callgsubr
          53 vlineto
          405 callsubr
          -34 hlineto
          -11 -6 -5 -13 hvcurveto
          186 -199 rmoveto
          12 358 callsubr
          34 456 callsubr
          -12 vhcurveto
          -303 hlineto
          -14 485 callgsubr
          14 vhcurveto
          117 -132 rmoveto
          187 callgsubr
          34 420 callgsubr
          54 vlineto
          12 -6 4 -12 vhcurveto
          -34 379 callgsubr
          -12 hvcurveto
          endchar
        </CharString>
        <CharString name="dollar">
          15 288 -98 rmoveto
          122 callgsubr
          81 5 vlineto
          94 60 58 98 hvcurveto
          48 vlineto
          126 -77 30 -79 5 vhcurveto
          -51 2 rlineto
          -63 4 -41 12 55 vvcurveto
          34 vlineto
          63 22 23 58 vhcurveto
          46 hlineto
          58 22 -23 -56 hvcurveto
          -13 vlineto
          -13 6 -5 551 callsubr
          5 13 hvcurveto
          22 vlineto
          96 -56 60 -91 vhcurveto
          -5 82 hlineto
          349 callsubr
          -46 379 callgsubr
          -13 hvcurveto
          -82 -17 vlineto
          -96 -57 -58 -98 hvcurveto
          -47 vlineto
          -132 79 -25 83 -6 vhcurveto
          45 -2 rlineto
          61 -3 43 -13 -60 vvcurveto
          -32 vlineto
          -59 -24 -24 -56 vhcurveto
          -52 hlineto
          -58 -23 23 56 hvcurveto
          15 vlineto
          13 -5 5 -12 vhcurveto
          -63 hlineto
          -12 -6 -5 -13 hvcurveto
          -23 vlineto
          -97 58 -59 95 vhcurveto
          17 -81 hlineto
          187 callgsubr
          endchar
        </CharString>
        <CharString name="dotaccent">
          -288 58 590 rmoveto
          -11 5 -5 12 vhcurveto
          65 hlineto
          11 5 591 callsubr
          -65 hlineto
          -12 -5 -4 -12 hvcurveto
          endchar
        </CharString>
        <CharString name="dotlessi">
          -264 70 17 rmoveto
          427 callsubr
          -64 hlineto
          -14 callsubr
          endchar
        </CharString>
        <CharString name="dottedcircle">
          157 139 517 rmoveto
          -26 18 -19 26 26 18 19 26 25 -18 19 -26 -26 -18 -19 -25 vhcurveto
          -82 -110 rmoveto
          -25 20 -19 26 24 20 19 25 25 -20 19 -24 -26 -20 -19 -25 vhcurveto
          -13 -126 rmoveto
          -25 19 -18 25 26 18 18 592 callgsubr
          52 -116 rmoveto
          -26 18 -18 26 25 19 18 26 25 -19 19 -25 -26 -18 -19 -25 vhcurveto
          101 -75 rmoveto
          -26 19 -20 26 25 19 20 26 24 -19 20 -25 -26 -19 -20 -24 vhcurveto
          127 -16 rmoveto
          -26 18 -18 26 26 19 18 26 26 -19 18 -26 -26 -18 -18 -26 vhcurveto
          121 53 rmoveto
          -26 19 -18 25 25 20 18 26 25 -20 19 -25 -25 -19 -19 -25 vhcurveto
          73 98 rmoveto
          -25 19 -19 26 24 19 19 25 26 -19 19 -24 -26 -19 -19 -26 vhcurveto
          10 134 rmoveto
          -26 18 -18 26 25 19 18 26 26 -19 18 -25 -26 -18 -18 -26 vhcurveto
          -50 118 rmoveto
          -25 19 -19 25 26 18 19 592 callgsubr
          -95 68 rmoveto
          -24 19 -20 26 25 18 20 24 26 -18 19 -25 -26 -19 -19 -26 vhcurveto
          -126 15 rmoveto
          -26 18 -18 26 26 18 18 26 26 -18 18 -26 -26 -18 -18 -26 vhcurveto
          endchar
        </CharString>
        <CharString name="doubledanda">
          32 126 19 213 callgsubr
          235 -585 213 callgsubr
          endchar
        </CharString>
        <CharString name="dvA">
          102 478 623 rmoveto
          -67 callsubr
          65 hlineto
          15 -105 callsubr
          -15 vhcurveto
          endchar
        </CharString>
        <CharString name="dvAA">
          336 477 623 rmoveto
          -67 callsubr
          122 298 callsubr
          -512 vlineto
          -52 callsubr
          endchar
        </CharString>
        <CharString name="dvAI">
          19 469 623 233 callgsubr
          -61 316 callgsubr
          42 -62 36 -44 41 -43 rlinecurve
          -382 hlineto
          -13 77 callgsubr
          -6 13 vhcurveto
          65 453 callsubr
          -324 vlineto
          -102 66 -76 114 vhcurveto
          163 hlineto
          13 1 6 6 13 vvcurveto
          44 vlineto
          12 -5 7 -14 vhcurveto
          -145 hlineto
          -71 -37 35 63 hvcurveto
          321 -85 callgsubr
          192 hlineto
          7 5 -64 callsubr
          -109 vlineto
          -59 -31 -15 -49 vhcurveto
          -25 67 callsubr
          37 hlineto
          98 59 50 104 579 callsubr
          9 vhcurveto
          49 hlineto
          13 6 6 22 callsubr
          endchar
        </CharString>
        <CharString name="dvAU">
          337 778 623 rmoveto
          464 callgsubr
          231 343 callgsubr
          -49 hlineto
          -13 -7 -5 -14 hvcurveto
          -28 vlineto
          -69 15 -73 25 -55 vhcurveto
          -4 -1 -135 229 rlineto
          10 -6 -8 6 -20 hhcurveto
          -50 307 callgsubr
          57 -83 38 -55 52 -61 38 -29 rlinecurve
          -4 -193 vlineto
          -67 callsubr
          122 -86 callsubr
          -512 vlineto
          -14 6 351 callgsubr
          -105 callgsubr
          endchar
        </CharString>
        <CharString name="dvAbbreviationsign">
          -79 382 299 rmoveto
          34 vlineto
          93 -55 53 -93 vhcurveto
          -42 hlineto
          -93 -55 -53 -93 hvcurveto
          -34 vlineto
          -94 55 -53 93 vhcurveto
          42 hlineto
          93 55 53 94 hvcurveto
          -248 3 rmoveto
          28 vlineto
          51 19 23 54 vhcurveto
          12 hlineto
          54 586 callsubr
          -28 vlineto
          -51 -20 -24 -54 vhcurveto
          -12 hlineto
          -54 -19 24 51 hvcurveto
          endchar
        </CharString>
        <CharString name="dvAcandra">
          102 478 623 rmoveto
          -67 callsubr
          65 hlineto
          15 -105 callsubr
          -15 vhcurveto
          -15 231 rmoveto
          265 callgsubr
          93 hlineto
          541 callsubr
          endchar
        </CharString>
        <CharString name="dvAnusvara">
          -503 -72 802 rmoveto
          533 callgsubr
          -63 hlineto
          221 callgsubr
          endchar
        </CharString>
        <CharString name="dvAnusvara.amI">
          -503 133 802 346 callgsubr
        </CharString>
        <CharString name="dvAvagraha">
          36 467 201 rmoveto
          89 -39 26 -92 43 vhcurveto
          -89 41 -48 23 55 vvcurveto
          49 19 16 55 vhcurveto
          137 -103 callgsubr
          -154 hlineto
          -113 -36 -41 -105 -90 40 -45 89 -43 hvcurveto
          82 -39 58 -8 -56 vvcurveto
          -37 vlineto
          -48 -17 -28 -57 vhcurveto
          -59 hlineto
          -58 -20 38 30 -28 hvcurveto
          7 -5 -5 4 -7 hhcurveto
          -5 -3 -1 -7 -8 hvcurveto
          -23 -18 522 callsubr
          -43 28 49 -61 91 hhcurveto
          76 hlineto
          96 54 57 93 hvcurveto
          endchar
        </CharString>
        <CharString name="dvB">
          -228 217 154 rmoveto
          129 callgsubr
          101 121 rmoveto
          -13 -6 -4 -15 hvcurveto
          -19 -16 callgsubr
          91 57 58 109 hvcurveto
          13 vlineto
          13 380 callsubr
          -393 348 -99 callgsubr
          404 -22 callsubr
        </CharString>
        <CharString name="dvBA">
          8 216 154 48 callsubr
          -267 64 callgsubr
          342 100 callsubr
        </CharString>
        <CharString name="dvBH">
          -232 365 253 rmoveto
          234 callgsubr
          -196 43 callsubr
          195 290 516 callsubr
          -95 hlineto
          119 callsubr
          endchar
        </CharString>
        <CharString name="dvBHA">
          0 329 253 rmoveto
          125 callsubr
          -222 vlineto
          -14 6 351 callgsubr
          -105 callgsubr
          -231 hlineto
          44 callsubr
          -12 339 callgsubr
          -42 vlineto
          -13 6 -6 13 vhcurveto
          12 hlineto
          41 20 -23 -51 138 callsubr
          endchar
        </CharString>
        <CharString name="dvBH_LA">
          425 270 623 398 callsubr
          486 -20 callsubr
          -120 -4 vlineto
          20 -11 -24 11 -37 460 callsubr
          151 callgsubr
          -75 -54 -38 -72 -16 hvcurveto
          -162 43 callsubr
          156 -64 hlineto
          -104 58 -55 101 vhcurveto
          34 hlineto
          14 6 6 13 hvcurveto
          44 vlineto
          12 -6 6 -14 -58 callgsubr
          13 6 -31 callsubr
          512 vlineto
          7 4 5 7 vhcurveto
          66 hlineto
          14 -105 callsubr
          -14 vhcurveto
          endchar
        </CharString>
        <CharString name="dvBH_NA">
          275 269 -86 callgsubr
          337 -20 callsubr
          -128 vlineto
          -7 -3 340 callsubr
          -50 -37 -22 -36 -17 hvcurveto
          -167 43 callsubr
          158 hlineto
          2 -20 5 -18 9 -15 rrcurveto
          -5 callgsubr
          -278 vlineto
          -52 callsubr
          endchar
        </CharString>
        <CharString name="dvBH_R">
          -233 352 543 rmoveto
          -81 callgsubr
          -82 hlineto
          -13 -7 -15 callsubr
          444 callsubr
          -101 -196 rmoveto
          92 callsubr
          150 hlineto
          -227 252 callgsubr
        </CharString>
        <CharString name="dvBH_RA">
          0 276 623 rmoveto
          304 callgsubr
          -172 vlineto
          -8 -3 -4 -8 vhcurveto
          -160 hlineto
          92 callsubr
          159 hlineto
          6 3 -2 -4 1 hvcurveto
          -246 -252 222 callsubr
          9 4 10 9 hvcurveto
          143 154 rlineto
          -133 vlineto
          -14 6 351 callgsubr
          -105 callgsubr
          endchar
        </CharString>
        <CharString name="dvBH_R_YA">
          357 697 -95 callsubr
          -417 92 106 callgsubr
          -29 -167 vlineto
          92 callsubr
          166 -8 hlineto
          -243 -250 222 callsubr
          9 4 10 9 hvcurveto
          163 175 rlineto
          -52 30 55 -37 82 hhcurveto
          52 hlineto
          56 40 20 33 18 hvcurveto
          4 -118 hlineto
          -52 callsubr
          endchar
        </CharString>
        <CharString name="dvBH_VA">
          276 270 623 398 callsubr
          335 298 callsubr
          -285 vlineto
          -85 callsubr
          -93 -56 -49 -84 -9 hvcurveto
          -158 43 callsubr
          155 -15 hlineto
          242 callsubr
          -90 callsubr
        </CharString>
        <CharString name="dvBH_YA">
          347 686 -95 callsubr
          -417 92 106 callgsubr
          -43 -156 vlineto
          46 callsubr
          156 hlineto
          -90 7 63 -79 120 hhcurveto
          52 hlineto
          56 40 20 33 18 hvcurveto
          4 -118 hlineto
          -52 callsubr
          endchar
        </CharString>
        <CharString name="dvB_BA">
          306 514 154 48 callsubr
          -343 hmoveto
          -13 callgsubr
          640 19 callgsubr
          -102 194 callgsubr
          -13 vlineto
          -1 -8 12 callgsubr
          -60 99 vhcurveto
          51 hlineto
          52 41 19 36 25 hvcurveto
          -35 28 44 -19 56 hhcurveto
          -24 callgsubr
        </CharString>
        <CharString name="dvB_BHA">
          284 509 callgsubr
          8 2 8 vhcurveto
          175 -172 rlineto
          -6 -12 -15 -4 -17 hhcurveto
          290 469 rmoveto
          -14 -11 -17 callgsubr
          11 -6 14 vhcurveto
          53 298 callsubr
          -158 -1 callgsubr
          -160 hlineto
          464 callgsubr
          99 vlineto
          98 -55 53 -97 vhcurveto
          -296 67 callsubr
          296 374 callsubr
          -240 vlineto
          -8 -1 -8 -2 -7 vhcurveto
          -180 175 rlineto
          8 13 512 callsubr
          347 callsubr
          -101 194 callgsubr
          537 callsubr
          74 hlineto
          105 51 65 78 4 hvcurveto
          4 vlineto
          45 vlineto
          8 3 4 8 vhcurveto
          170 -262 hlineto
          -14 7 -5 12 vhcurveto
          53 hlineto
          -105 callgsubr
          endchar
        </CharString>
        <CharString name="dvB_BH_RA">
          283 447 callsubr
          183 -173 rlineto
          -10 -12 -17 -6 -24 hhcurveto
          291 469 rmoveto
          -14 -12 -17 callgsubr
          12 -6 14 vhcurveto
          52 298 callsubr
          -158 vlineto
          315 callsubr
          99 vlineto
          98 -55 53 -97 vhcurveto
          -295 67 callsubr
          295 374 callsubr
          -245 vlineto
          -5 vlineto
          0 vlineto
          -1 -2 -177 167 292 callgsubr
          82 hlineto
          110 41 70 76 1 hvcurveto
          1 vlineto
          45 vlineto
          8 3 4 8 vhcurveto
          170 -33 hlineto
          -238 -244 428 callsubr
          134 144 rlineto
          -118 vlineto
          -42 callsubr
        </CharString>
        <CharString name="dvB_DA">
          278 217 154 rmoveto
          -13 callgsubr
          617 71 callsubr
          -68 -16 callgsubr
          50 39 17 34 26 hvcurveto
          -36 26 42 -20 61 hhcurveto
          -77 callsubr
          endchar
        </CharString>
        <CharString name="dvB_DHA">
          340 217 159 rmoveto
          582 callsubr
          69 574 callgsubr
          176 -167 rlineto
          -8 -12 -17 -4 -21 hhcurveto
          351 464 rmoveto
          14 callgsubr
          19 hlineto
          13 -89 callsubr
          -13 vhcurveto
          -508 -52 callgsubr
          380 389 callsubr
          -32 vlineto
          -1 -8 -175 166 rlineto
          7 12 512 callsubr
          42 hlineto
          13 6 6 12 hvcurveto
          41 -6 callsubr
          -52 hlineto
          -101 9 callsubr
          -71 vlineto
          -100 61 -60 99 vhcurveto
          47 hlineto
          51 39 15 30 27 hvcurveto
          -33 24 41 -18 54 hhcurveto
          69 callgsubr
          endchar
        </CharString>
        <CharString name="dvB_DH_VA">
          616 447 callsubr
          181 -171 rlineto
          -11 -14 -17 -7 -27 hhcurveto
          369 469 254 callsubr
          315 -19 callgsubr
          -70 vlineto
          -14 1 -13 2 -12 vhcurveto
          -20 -17 -20 -21 -44 hhcurveto
          -74 hlineto
          -49 -20 18 52 hvcurveto
          27 vlineto
          36 20 19 34 vhcurveto
          62 hlineto
          13 6 6 13 hvcurveto
          43 530 callsubr
          -36 578 callsubr
          17 17 32 vhcurveto
          16 -96 callgsubr
          -515 -52 callgsubr
          389 -4 hlineto
          -20 229 callsubr
          -42 vlineto
          -46 16 -28 41 -15 vhcurveto
          -4 vlineto
          -39 -13 467 callsubr
          -33 vlineto
          -8 vlineto
          -1 vlineto
          -183 173 292 callgsubr
          48 hlineto
          59 41 21 26 28 hvcurveto
          -32 25 40 -17 52 hhcurveto
          93 hlineto
          52 36 21 26 26 hvcurveto
          -28 27 40 -15 51 hhcurveto
          -26 callsubr
        </CharString>
        <CharString name="dvB_JA">
          394 135 295 rmoveto
          13 2 11 3 10 vhcurveto
          193 -193 rlineto
          -117 554 callsubr
          -140 405 -99 callgsubr
          729 381 callgsubr
          6 -6 247 callsubr
          -57 vlineto
          -49 -15 -29 -61 vhcurveto
          -57 hlineto
          -234 233 rlineto
          5 11 15 3 16 hhcurveto
          53 hlineto
          13 238 callsubr
          46 530 callsubr
          -102 -57 -60 -99 -1 hvcurveto
          -88 vlineto
          242 callsubr
          285 270 callgsubr
          127 344 callgsubr
          -317 vlineto
          -93 callsubr
          endchar
        </CharString>
        <CharString name="dvB_JHA">
          489 830 291 rmoveto
          -8 -4 -4 -8 vhcurveto
          -333 hlineto
          -34 -15 10 32 hvcurveto
          25 vlineto
          32 12 14 37 vhcurveto
          166 hlineto
          26 20 219 callgsubr
          111 -86 callsubr
          -613 -377 rmoveto
          -13 callgsubr
          601 -86 callsubr
          -47 101 callsubr
          -118 hlineto
          -80 -51 -38 -79 hvcurveto
          -118 -22 callgsubr
          -59 99 vhcurveto
          65 hlineto
          89 54 46 90 9 hvcurveto
          -8 22 26 -4 28 hhcurveto
          86 hlineto
          35 14 -15 -33 hvcurveto
          -68 vlineto
          -36 -15 -14 -37 vhcurveto
          -37 hlineto
          -38 -22 9 40 15 -6 5 -13 hvcurveto
          490 callsubr
          -169 vlineto
          -14 6 -5 13 vhcurveto
          50 hlineto
          13 6 -31 callsubr
          69 339 callsubr
          35 hhcurveto
          34 hlineto
          80 48 46 78 hvcurveto
          86 vlineto
          14 -4 12 -7 9 vhcurveto
          104 453 callsubr
          -169 vlineto
          -80 callgsubr
          endchar
        </CharString>
        <CharString name="dvB_J_YA">
          744 1084 278 276 callgsubr
          -949 -236 rmoveto
          13 2 11 3 10 vhcurveto
          193 -193 rlineto
          -117 554 callsubr
          -140 405 76 callgsubr
          810 8 callsubr
          -7 hlineto
          27 -15 -26 16 -43 hhcurveto
          -288 hlineto
          -13 -6 132 callgsubr
          6 -6 247 callsubr
          -63 281 callsubr
          -61 vhcurveto
          -57 hlineto
          -234 233 rlineto
          5 11 15 3 16 hhcurveto
          53 hlineto
          13 238 callsubr
          46 530 callsubr
          -102 -57 -60 -99 -1 hvcurveto
          -88 vlineto
          242 callsubr
          285 155 callsubr
          76 vlineto
          33 -13 23 -23 11 vhcurveto
          4 94 vlineto
          27 5 -11 -24 hvcurveto
          -48 vlineto
          -97 64 433 callgsubr
          -20 callgsubr
          6 351 callgsubr
          -105 callgsubr
          endchar
        </CharString>
        <CharString name="dvB_JxA">
          394 401 -8 rmoveto
          -42 callgsubr
          5 235 callsubr
          -11 vhcurveto
          -321 303 rmoveto
          13 2 11 3 10 vhcurveto
          193 -193 rlineto
          -117 554 callsubr
          -140 405 -99 callgsubr
          729 381 callgsubr
          6 -6 247 callsubr
          -57 vlineto
          -49 -15 -29 -61 vhcurveto
          -57 hlineto
          -234 233 rlineto
          5 11 15 3 16 hhcurveto
          53 hlineto
          13 238 callsubr
          46 530 callsubr
          -102 -57 -60 -99 -1 hvcurveto
          -88 vlineto
          242 callsubr
          285 270 callgsubr
          127 344 callgsubr
          -317 vlineto
          -93 callsubr
          endchar
        </CharString>
        <CharString name="dvB_LA">
          446 217 154 rmoveto
          -13 callgsubr
          782 -20 callsubr
          -120 -4 vlineto
          372 callsubr
          -56 -30 409 callgsubr
          -4 hlineto
          108 callsubr
          -46 -16 callgsubr
          42 34 12 24 25 hvcurveto
          -54 23 50 -28 72 211 callgsubr
          44 434 callsubr
          -265 vlineto
          -42 callsubr
        </CharString>
        <CharString name="dvB_L_YA">
          491 1149 265 callsubr
          -932 -377 rmoveto
          -13 callgsubr
          875 hlineto
          49 21 -22 -46 hvcurveto
          -38 496 callsubr
          -7 hlineto
          55 -13 -58 33 -71 hhcurveto
          -60 -34 457 callsubr
          -62 -16 callgsubr
          44 37 14 27 25 hvcurveto
          -47 25 48 -24 67 211 callgsubr
          53 14 -34 -34 vhcurveto
          -42 vlineto
          -97 63 -83 128 vhcurveto
          52 hlineto
          57 39 20 33 18 hvcurveto
          4 -118 hlineto
          -90 callgsubr
        </CharString>
        <CharString name="dvB_NA">
          335 311 172 rmoveto
          -12 -11 -16 -6 -21 hhcurveto
          -46 hlineto
          256 callsubr
          7 1 14 2 5 vhcurveto
          131 57 rmoveto
          -12 callsubr
          -101 194 callgsubr
          -100 61 -60 99 vhcurveto
          63 hlineto
          69 45 25 53 24 hvcurveto
          -240 226 rlineto
          8 12 16 5 20 hhcurveto
          -223 230 -99 callgsubr
          670 -78 callsubr
          -128 545 callsubr
          -65 442 callgsubr
          hvcurveto
          286 callsubr
          -3 347 callgsubr
          -278 vlineto
          -14 7 -5 12 vhcurveto
          53 hlineto
          -105 callgsubr
          endchar
        </CharString>
        <CharString name="dvB_R">
          -212 369 245 rmoveto
          -8 -10 -7 -10 -7 -7 -170 164 rcurveline
          293 callgsubr
          -4 hlineto
          212 callsubr
          75 72 17 15 106 112 7 20 rlinecurve
          8 9 6 7 7 vvcurveto
          7 -2 4 -6 5 vhcurveto
          -19 15 -7 6 -3 2 -5 -1 rlinecurve
          -7 -1 -3 -5 -7 -7 rrcurveto
          -233 65 rmoveto
          12 1 11 3 10 vhcurveto
          175 -167 rlineto
          -14 -11 -17 -8 -24 hhcurveto
          -46 hlineto
          169 callgsubr
          -141 386 rmoveto
          -71 callgsubr
          383 -103 callgsubr
          endchar
        </CharString>
        <CharString name="dvB_RA">
          8 214 82 rmoveto
          212 callsubr
          72 72 rlineto
          14 12 50 55 0 vvcurveto
          4 -97 435 callsubr
          8 vhcurveto
          65 -75 callgsubr
          -521 -52 callgsubr
          342 453 callsubr
          -291 vlineto
          -7 384 callsubr
          -170 163 rlineto
          293 callgsubr
          hlineto
          -78 224 rmoveto
          12 1 11 3 10 vhcurveto
          177 -169 rlineto
          -13 -12 -18 -7 -24 hhcurveto
          -46 hlineto
          169 callgsubr
          endchar
        </CharString>
        <CharString name="dvB_SA">
          405 745 344 rmoveto
          378 callgsubr
          vhcurveto
          -175 4 hlineto
          17 -61 callsubr
          141 -86 callsubr
          -528 -377 rmoveto
          -13 callgsubr
          485 -13 callsubr
          -21 -17 -31 vhcurveto
          -69 323 callgsubr
          -73 -16 callgsubr
          70 50 35 66 19 hvcurveto
          98 -165 574 callsubr
          60 hlineto
          10 7 7 230 callsubr
          -2 4 hvcurveto
          -133 218 rlineto
          280 209 callgsubr
          -220 vlineto
          -14 6 351 callgsubr
          -105 callgsubr
          endchar
        </CharString>
        <CharString name="dvB_SHA">
          426 303 605 rmoveto
          12 -6 6 -14 vhcurveto
          -288 -52 callgsubr
          288 hlineto
          14 6 6 13 hvcurveto
          -86 -408 rmoveto
          481 callsubr
          -171 rlineto
          -9 -13 -17 -4 -22 hhcurveto
          102 283 rmoveto
          -13 6 -6 14 386 callsubr
          6 6 13 hvcurveto
          52 vlineto
          40 15 18 42 41 15 -19 -40 vhcurveto
          -90 495 callgsubr
          -116 hlineto
          -15 477 callsubr
          -65 vlineto
          -8 -1 -8 -1 -7 vhcurveto
          -177 168 rlineto
          7 12 512 callsubr
          347 callsubr
          -101 194 callgsubr
          -100 61 -60 99 vhcurveto
          53 hlineto
          71 50 35 68 18 hvcurveto
          117 -167 574 callsubr
          62 hlineto
          10 7 8 9 4 -2 6 -3 4 hvcurveto
          -156 214 rlineto
          40 hlineto
          110 55 24 callgsubr
          434 138 rmoveto
          -23 -14 -16 -22 hvcurveto
          -566 vlineto
          -42 callsubr
        </CharString>
        <CharString name="dvB_TA">
          297 217 154 rmoveto
          -13 callgsubr
          633 -20 callsubr
          -90 -1 callgsubr
          -121 hlineto
          -98 -60 -54 -104 hvcurveto
          -34 -16 callgsubr
          37 31 10 18 25 hvcurveto
          -70 15 49 -34 79 hhcurveto
          -75 callsubr
        </CharString>
        <CharString name="dvB_VA">
          297 217 154 rmoveto
          -13 callgsubr
          632 -19 callgsubr
          -71 -16 callgsubr
          53 41 20 38 25 hvcurveto
          -36 27 44 -19 57 hhcurveto
          -26 callsubr
        </CharString>
        <CharString name="dvB_YA">
          368 708 -95 callsubr
          -491 -377 rmoveto
          -13 callgsubr
          434 21 callsubr
          -105 vlineto
          -10 vlineto
          -5 vlineto
          -19 -16 callgsubr
          59 45 25 47 24 hvcurveto
          -38 32 50 -26 68 hhcurveto
          52 hlineto
          56 40 20 33 18 hvcurveto
          4 -118 hlineto
          -52 callsubr
          endchar
        </CharString>
        <CharString name="dvC">
          -159 459 543 rmoveto
          10 callgsubr
          6 -13 vhcurveto
          -464 -52 callgsubr
          324 -454 rmoveto
          81 50 50 40 25 hvcurveto
          2 2 2 366 callgsubr
          7 vhcurveto
          -20 16 rlineto
          6 -8 -4 1 -4 hhcurveto
          -8 -6 -6 -7 -7 hvcurveto
          -23 -21 -21 -28 -51 hhcurveto
          -46 57 callgsubr
          -39 vvcurveto
          -30 553 callsubr
          endchar
        </CharString>
        <CharString name="dvCA">
          78 141 361 rmoveto
          566 callsubr
          -39 vvcurveto
          -30 553 callsubr
          58 hlineto
          54 30 21 27 14 hvcurveto
          4 -117 90 callsubr
          hlineto
          endchar
        </CharString>
        <CharString name="dvCH">
          61 -5 623 210 callsubr
          143 vlineto
          85 -42 44 -86 vhcurveto
          -41 -52 callgsubr
          34 hlineto
          32 589 callsubr
          -133 vlineto
          -55 -24 -23 -55 vhcurveto
          -116 hlineto
          -52 -22 17 51 hvcurveto
          26 vlineto
          40 18 22 43 vhcurveto
          28 hlineto
          14 6 6 11 280 callgsubr
          -35 hlineto
          -35 -19 19 35 hvcurveto
          68 vlineto
          41 18 23 42 vhcurveto
          356 165 callsubr
        </CharString>
        <CharString name="dvCHA">
          61 340 26 callsubr
          -386 205 210 callsubr
          61 callsubr
        </CharString>
        <CharString name="dvCH_R">
          61 338 -132 rmoveto
          11 -8 -8 6 -12 hhcurveto
          -49 hlineto
          -69 callsubr
          -89 683 -2 callgsubr
        </CharString>
        <CharString name="dvCH_RA">
          61 340 418 -2 callgsubr
        </CharString>
</ttFont>
